<svg width="32" height="32" viewBox="0 0 32 32" fill="none" xmlns="http://www.w3.org/2000/svg">
<path d="M0 16C0 13.6327 0.390572 11.4694 1.17172 9.5102C1.95286 7.55102 3.04377 5.87755 4.44444 4.4898C5.87205 3.07483 7.55556 1.97279 9.49495 1.18367C11.4613 0.394558 13.6296 0 16 0C18.3704 0 20.5253 0.394558 22.4646 1.18367C24.431 1.97279 26.1145 3.07483 27.5152 4.4898C28.9428 5.90476 30.0471 7.59184 30.8283 9.55102C31.6094 11.5102 32 13.6599 32 16C32 17.4966 31.8114 18.8027 31.4343 19.9184C31.0842 21.0068 30.5993 21.9048 29.9798 22.6122C29.3872 23.3197 28.6869 23.8503 27.8788 24.2041C27.0707 24.5578 26.2222 24.7347 25.3333 24.7347C24.1212 24.7347 23.1111 24.5034 22.303 24.0408C21.5219 23.551 20.9024 22.9116 20.4444 22.1224H20.404C20.0269 22.8844 19.4074 23.5102 18.5455 24C17.6835 24.4626 16.5253 24.6939 15.0707 24.6939C12.0539 24.6939 10.1145 23.3605 9.25253 20.6939C9.06397 20.1497 8.92929 19.551 8.84848 18.898C8.76768 18.2177 8.72727 17.3061 8.72727 16.1633C8.72727 15.0204 8.76768 14.1224 8.84848 13.4694C8.92929 12.7891 9.06397 12.1769 9.25253 11.6327C9.6835 10.2993 10.3838 9.30612 11.3535 8.65306C12.3232 7.97279 13.5084 7.63265 14.9091 7.63265C15.9865 7.63265 16.9024 7.85034 17.6566 8.28571C18.4108 8.69388 18.9495 9.17007 19.2727 9.71429H19.3535V8.44898C19.3535 8.20408 19.4613 8.08163 19.6768 8.08163H22.6667C22.8822 8.08163 22.9899 8.20408 22.9899 8.44898V18.5306C22.9899 19.5646 23.2189 20.2993 23.6768 20.7347C24.1616 21.1701 24.7138 21.3878 25.3333 21.3878C25.7374 21.3878 26.1145 21.3061 26.4646 21.1429C26.8148 20.9524 27.1246 20.6531 27.3939 20.2449C27.6633 19.8367 27.8788 19.2925 28.0404 18.6122C28.202 17.9048 28.2828 17.034 28.2828 16C28.2828 14.1224 28 12.4082 27.4343 10.8571C26.8687 9.30612 26.0471 7.97279 24.9697 6.85714C23.9192 5.7415 22.6263 4.88435 21.0909 4.28572C19.5825 3.65986 17.8855 3.34694 16 3.34694C14.0875 3.34694 12.3771 3.65986 10.8687 4.28572C9.36027 4.88435 8.06734 5.7415 6.9899 6.85714C5.93939 7.94558 5.13131 9.27891 4.56566 10.8571C4 12.4082 3.71717 14.1224 3.71717 16C3.71717 17.8776 4 19.6054 4.56566 21.1837C5.13131 22.7347 5.93939 24.068 6.9899 25.1837C8.06734 26.2721 9.36027 27.1156 10.8687 27.7143C12.3771 28.3401 14.0875 28.6531 16 28.6531C17.8855 28.6531 19.4882 28.4898 20.8081 28.1633C22.1549 27.8367 23.4343 27.3878 24.6465 26.8163C24.9158 26.6803 25.1044 26.7483 25.2121 27.0204L26.1414 29.2245C26.2761 29.4422 26.2222 29.619 25.9798 29.7551C24.5253 30.5442 23.0168 31.1156 21.4545 31.4694C19.8923 31.8231 18.0741 32 16 32C13.6296 32 11.4613 31.6054 9.49495 30.8163C7.55556 30.0272 5.87205 28.9252 4.44444 27.5102C3.04377 26.1224 1.95286 24.449 1.17172 22.4898C0.390572 20.5306 0 18.3673 0 16ZM12.7273 19.0612C13.2391 20.5578 14.303 21.3061 15.9192 21.3061C17.5354 21.3061 18.5859 20.5578 19.0707 19.0612C19.1785 18.7347 19.2458 18.3673 19.2727 17.9592C19.3266 17.551 19.3535 16.9524 19.3535 16.1633C19.3535 15.3742 19.3266 14.7755 19.2727 14.3673C19.2458 13.9592 19.1785 13.6054 19.0707 13.3061C18.5859 11.7823 17.5354 11.0204 15.9192 11.0204C14.303 11.0204 13.2391 11.7823 12.7273 13.3061C12.6195 13.6054 12.5387 13.9592 12.4848 14.3673C12.4579 14.7755 12.4444 15.3742 12.4444 16.1633C12.4444 16.9524 12.4579 17.551 12.4848 17.9592C12.5387 18.3673 12.6195 18.7347 12.7273 19.0612Z" fill="#FE6152"/>
</svg>
