<svg width="172" height="171" viewBox="0 0 172 171" fill="none" xmlns="http://www.w3.org/2000/svg">
<path d="M96.0682 101.318C95.7382 100.977 95.5341 100.513 95.5434 99.9831L95.1484 93.5895C94.9982 91.1589 95.0456 88.7202 95.2901 86.2972L95.8852 80.3992L86.2472 80.724L76.3013 80.0574C75.2762 80.0395 74.4426 79.1763 74.4605 78.1511C74.4784 77.126 75.3416 76.2924 76.3667 76.3103L87.1428 77.0825L97.8242 76.6848C98.8493 76.7027 99.6829 77.5659 99.665 78.5911L98.9139 84.1683C98.4963 87.2689 98.4265 90.4065 98.7057 93.5227L99.2905 100.049C99.2726 101.074 98.4094 101.907 97.3842 101.889C96.8713 101.898 96.3981 101.66 96.0682 101.318Z" fill="#FE6152"/>
<path d="M74.3027 101.242C73.5905 100.504 73.4549 99.4533 74.0037 98.9234L96.5282 77.1717C97.0769 76.6418 98.1226 76.814 98.8348 77.5515C99.5469 78.2889 99.6825 79.3399 99.1338 79.8698L76.6092 101.622C76.0605 102.151 75.0148 101.979 74.3027 101.242Z" fill="#FE6152"/>
<path d="M83.5182 148.537L84.5172 151.894L91.0137 152.447L92.5655 149.307L94.379 149.462L87.9048 162.56L85.7925 162.38L81.6052 148.374L83.5182 148.537ZM87.5398 159.538L90.3302 153.874L84.9496 153.416L86.7427 159.47L87.0395 160.7L87.5398 159.538Z" fill="#FE6152"/>
<path d="M74.9836 145.496L76.6869 145.939L72.9021 160.475L71.1989 160.031L71.5315 158.754C70.6022 159.545 69.4689 159.849 68.2496 159.532C65.5206 158.821 64.3995 156.38 65.2714 153.032C66.1785 149.548 68.3613 148.07 71.0516 148.771C72.2709 149.088 73.127 149.849 73.5575 150.973L74.9836 145.496ZM68.7487 158.091C70.5487 158.56 71.8742 157.438 72.5294 154.922C73.1795 152.425 72.546 150.731 70.7847 150.272C69.0041 149.808 67.6735 150.95 67.0133 153.485C66.3682 155.963 67.0068 157.638 68.7487 158.091Z" fill="#FE6152"/>
<path d="M62.9374 142.393L64.5412 143.118L58.3545 156.804L56.7507 156.079L57.2944 154.876C56.2446 155.499 55.0763 155.608 53.9281 155.089C51.3585 153.927 50.6661 151.332 52.0913 148.179C53.5742 144.898 55.9753 143.811 58.5085 144.956C59.6566 145.475 60.3719 146.369 60.6061 147.55L62.9374 142.393ZM54.6636 153.753C56.3585 154.519 57.8546 153.637 58.9255 151.268C59.9882 148.917 59.6502 147.14 57.9917 146.39C56.3151 145.632 54.8107 146.533 53.7315 148.92C52.6771 151.253 53.0234 153.012 54.6636 153.753Z" fill="#FE6152"/>
<path d="M50.0898 140.54L42.0262 152.47L40.568 151.485L48.6316 139.554L50.0898 140.54Z" fill="#FE6152"/>
<path d="M46.1054 131.807C46.3942 132.084 46.6283 132.447 46.7456 132.642L45.8045 133.624L45.4147 133.25C44.4761 132.351 44.0363 132.289 41.6387 133.288L40.8114 133.631L36.8315 144.056L35.4598 142.741L38.238 135.68L38.874 134.323L37.5449 135.016L30.666 138.147L29.3665 136.901L41.2645 131.655C43.8012 130.54 44.777 130.534 46.1054 131.807Z" fill="#FE6152"/>
<path d="M31.9016 122.552L19.7578 128.675L18.8934 126.96L24.6472 117.049L25.4926 115.749L15.724 120.674L14.8956 119.031L27.0394 112.908L27.9038 114.623L22.1945 124.49L21.3046 125.834L31.0732 120.909L31.9016 122.552Z" fill="#FE6152"/>
<path d="M23.583 104.812C24.4732 107.718 23.0173 110.068 19.7089 111.081C16.2667 112.135 13.823 110.917 12.9504 108.068C12.0602 105.161 13.5544 102.8 16.8627 101.787C20.2858 100.739 22.7104 101.962 23.583 104.812ZM22.1296 105.257C21.5498 103.364 19.8758 102.747 17.3898 103.508C14.9229 104.264 13.8299 105.749 14.4038 107.623C14.9836 109.516 16.6767 110.127 19.1819 109.36C21.6297 108.61 22.7036 107.131 22.1296 105.257Z" fill="#FE6152"/>
<path d="M20.6438 89.0349L13.0602 92.3248L11.9004 92.7153L13.1212 92.8009L21.2865 94.0539L21.5634 96.2163L11.4308 100.7L11.1895 98.815L19.0858 95.606L20.1241 95.2109L19.0198 95.0902L10.5391 93.7365L10.2978 91.8518L18.1637 88.4048L19.1648 88.0347L18.1052 87.9485L9.65509 86.8328L9.42391 85.0276L20.3618 86.8329L20.6438 89.0349Z" fill="#FE6152"/>
<path d="M21.7967 72.5276L19.6852 72.0725L20.1402 69.961L22.2518 70.416L21.7967 72.5276Z" fill="#FE6152"/>
<path d="M31.3485 52.7667L27.9014 52.1474L24.4829 57.6994L26.5878 60.4986L25.6336 62.0484L16.8526 50.3706L17.9641 48.5654L32.3552 51.1318L31.3485 52.7667ZM19.7152 51.4051L23.5163 56.4466L26.3475 51.8483L20.1346 50.7239L18.9031 50.4353L19.7152 51.4051Z" fill="#FE6152"/>
<path d="M38.6691 46.8648L37.5063 48.186L26.2312 38.2626L27.394 36.9414L28.3849 37.8135C28.0967 36.6274 28.3352 35.4785 29.1676 34.5327C31.0307 32.4158 33.7153 32.5138 36.3126 34.7998C39.015 37.1782 39.3518 39.7925 37.5151 41.8794C36.6827 42.8252 35.6184 43.2473 34.4203 43.1254L38.6691 46.8648ZM30.2294 35.627C29.0005 37.0232 29.4058 38.712 31.3575 40.4298C33.2943 42.1343 35.0924 42.3314 36.2948 40.9652C37.5104 39.584 37.0901 37.8819 35.1234 36.151C33.2017 34.4596 31.4186 34.2758 30.2294 35.627Z" fill="#FE6152"/>
<path d="M45.9073 39.402L44.538 40.5077L35.1021 28.8216L36.4715 27.7159L37.3007 28.7429C37.2171 27.5251 37.6463 26.4331 38.6267 25.6415C40.8207 23.8699 43.4501 24.4203 45.6237 27.1123C47.8853 29.9132 47.7754 32.5468 45.6125 34.2933C44.6322 35.0848 43.5119 35.3211 42.3516 34.9983L45.9073 39.402ZM39.4882 26.8995C38.0411 28.068 38.1551 29.8011 39.7885 31.8239C41.4093 33.8313 43.1482 34.3294 44.5642 33.1861C45.9958 32.0301 45.8692 30.2815 44.2233 28.2431C42.615 26.2513 40.8887 25.7687 39.4882 26.8995Z" fill="#FE6152"/>
<path d="M53.3459 28.7641L46.3231 16.1927L47.8596 15.3343L54.8824 27.9057L53.3459 28.7641Z" fill="#FE6152"/>
<path d="M62.9372 29.1378C62.56 29.271 62.1307 29.3167 61.9033 29.3334L61.4502 28.0511L61.9594 27.8712C63.1851 27.4381 63.4379 27.073 63.6256 24.4825L63.6919 23.5894L56.1751 15.3425L57.9666 14.7095L63.0207 20.369L63.9464 21.548L63.9259 20.0492L64.2273 12.4974L65.9245 11.8978L65.2522 24.8835C65.1056 27.6504 64.6721 28.5248 62.9372 29.1378Z" fill="#FE6152"/>
<path d="M81.0803 20V6.4H83.0003L89.2603 16L90.0403 17.34V6.4L91.8803 6.4V20H89.9603L83.7203 10.46L82.9203 9.06V20H81.0803Z" fill="#FE6152"/>
<path d="M100.013 21.1804C97.0171 20.6666 95.5748 18.309 96.1595 14.8987C96.7679 11.3505 98.9555 9.71672 101.893 10.2203C104.889 10.7341 106.324 13.1312 105.74 16.5414C105.135 20.0699 102.951 21.684 100.013 21.1804ZM100.27 19.6823C102.222 20.0169 103.526 18.7998 103.966 16.2372C104.402 13.6943 103.568 12.0497 101.636 11.7185C99.6843 11.3839 98.3764 12.6206 97.9337 15.2029C97.501 17.7261 98.3384 19.351 100.27 19.6823Z" fill="#FE6152"/>
<path d="M116.359 24.7026L116.836 16.45L117.009 15.2386L116.383 16.2901L111.588 23.0169L109.533 22.2907L110.091 11.2246L111.883 11.8576L111.193 20.3531L111.079 21.4581L111.684 20.5264L116.71 13.5633L118.502 14.1962L118.039 22.7717L117.918 23.8323L118.472 22.925L123.273 15.8819L124.989 16.4882L118.453 25.4422L116.359 24.7026Z" fill="#FE6152"/>
<path d="M126.813 34.1197L128.17 32.4392L129.851 33.7961L128.494 35.4767L126.813 34.1197Z" fill="#FE6152"/>
<path d="M140.33 53.2351L142.435 50.4359L139.016 44.884L135.569 45.5032L134.615 43.9535L148.996 41.3701L150.107 43.1753L141.337 54.8701L140.33 53.2351ZM146.783 43.4604L140.57 44.5848L143.402 49.1831L147.203 44.1417L148.015 43.1719L146.783 43.4604Z" fill="#FE6152"/>
<path d="M142.132 60.739L141.476 59.1059L155.413 53.5056L156.069 55.1387L154.844 55.6308C156.033 55.9075 156.952 56.6377 157.422 57.8068C158.473 60.4235 157.177 62.7764 153.966 64.0665C150.626 65.4088 148.14 64.5325 147.104 61.953C146.634 60.7839 146.736 59.6435 147.384 58.6286L142.132 60.739ZM155.966 58.2622C155.273 56.5364 153.583 56.1379 151.17 57.1074C148.776 58.0693 147.791 59.5862 148.469 61.2749C149.155 62.9822 150.864 63.3732 153.295 62.3963C155.671 61.4418 156.638 59.9324 155.966 58.2622Z" fill="#FE6152"/>
<path d="M145.538 73.3936L145.167 71.6731L159.85 68.5087L160.22 70.2292L158.93 70.5073C160.055 70.9809 160.837 71.8559 161.102 73.0876C161.697 75.8443 160.021 77.9443 156.639 78.6733C153.12 79.4317 150.818 78.1479 150.232 75.4303C149.967 74.1986 150.26 73.092 151.07 72.2012L145.538 73.3936ZM159.591 73.2905C159.199 71.4723 157.601 70.7939 155.059 71.3416C152.537 71.8852 151.309 73.2136 151.693 74.9928C152.08 76.7915 153.699 77.4657 156.26 76.9137C158.762 76.3744 159.97 75.0501 159.591 73.2905Z" fill="#FE6152"/>
<path d="M151.687 84.8247L166.074 84.2135L166.149 85.972L151.762 86.5831L151.687 84.8247Z" fill="#FE6152"/>
<path d="M147.035 93.2209C147.086 92.8242 147.239 92.4203 147.326 92.2097L148.675 92.3824L148.607 92.918C148.441 94.2075 148.654 94.5976 150.882 95.9315L151.65 96.3927L162.398 93.3936L162.157 95.2782L154.828 97.2432L153.358 97.539L154.706 98.1955L161.313 101.864L161.085 103.65L149.792 97.2033C147.387 95.8267 146.802 95.046 147.035 93.2209Z" fill="#FE6152"/>
<path d="M147.027 110.704L159.171 116.827L158.306 118.541L146.916 119.809L145.368 119.902L155.137 124.827L154.308 126.47L142.165 120.347L143.029 118.633L154.357 117.356L155.967 117.272L146.198 112.347L147.027 110.704Z" fill="#FE6152"/>
<path d="M135.892 129.505C137.7 127.061 140.455 126.834 143.236 128.892C146.131 131.032 146.605 133.721 144.833 136.117C143.025 138.561 140.238 138.764 137.457 136.707C134.578 134.578 134.12 131.901 135.892 129.505ZM137.115 130.409C135.937 132.001 136.437 133.713 138.527 135.259C140.601 136.794 142.445 136.789 143.611 135.213C144.788 133.621 144.273 131.897 142.166 130.339C140.108 128.817 138.28 128.833 137.115 130.409Z" fill="#FE6152"/>
<path d="M124.539 144.234L131.694 148.375L132.697 149.075L132.04 148.043L128.193 140.733L129.766 139.224L139.396 144.705L138.024 146.02L130.749 141.579L129.814 140.979L130.374 141.939L134.328 149.562L132.956 150.877L125.508 146.603L124.615 146.018L125.175 146.921L129.303 154.378L127.989 155.638L122.937 145.77L124.539 144.234Z" fill="#FE6152"/>
<path d="M113.83 145.183L114.72 147.151L112.751 148.041L111.862 146.073L113.83 145.183Z" fill="#FE6152"/>
</svg>
