<svg width="42" height="42" viewBox="0 0 42 42" fill="none" xmlns="http://www.w3.org/2000/svg">
<g clip-path="url(#clip0_54_312)">
<path d="M20.9267 5.33695C21.3829 5.33695 21.7528 4.96707 21.7528 4.51082V0.826137C21.7528 0.369879 21.3829 0 20.9267 0C20.4704 0 20.1005 0.369879 20.1005 0.826137V4.51082C20.1006 4.96707 20.4705 5.33695 20.9267 5.33695ZM41.1205 28.3816L39.6611 26.9263C39.1419 26.4077 38.45 26.1221 37.7127 26.1221C37.2413 26.1221 36.7887 26.2394 36.3877 26.4592L33.6375 23.7123L33.7714 23.5785C34.8871 22.4606 34.8867 20.644 33.7714 19.5298C33.3787 19.1351 32.8786 18.8646 32.3333 18.7522C32.4089 18.491 32.4473 18.2204 32.4472 17.9484C32.4472 17.181 32.1491 16.4615 31.6095 15.9241C31.2169 15.5293 30.7167 15.2589 30.1714 15.1464C30.2471 14.8852 30.2854 14.6146 30.2854 14.3427C30.2854 13.5752 29.9872 12.8557 29.4467 12.3175C29.0537 11.9243 28.5542 11.6547 28.0099 11.5419C28.2917 10.5701 28.0509 9.47666 27.2864 8.71082C26.65 8.07713 25.7864 7.80478 24.9542 7.89305L19.5045 6.8615C18.6733 6.70384 17.6354 6.59958 16.9802 7.19718C16.9389 7.23491 16.8967 7.27831 16.8552 7.32662C15.8393 6.95633 14.6545 7.17683 13.841 7.98943C13.3013 8.52846 13.004 9.24771 13.004 10.0147C13.004 10.291 13.0431 10.5608 13.1177 10.8185C12.5734 10.9307 12.0742 11.2006 11.6821 11.5945C11.1414 12.133 10.8432 12.8514 10.8426 13.6175C10.8423 13.8902 10.8807 14.1616 10.9567 14.4236C10.4119 14.5355 9.91212 14.8051 9.5193 15.1987C8.97855 15.7389 8.68078 16.4586 8.68078 17.2252C8.68078 17.8123 8.85608 18.3717 9.18093 18.8442C8.76635 18.9848 8.38978 19.2191 8.08048 19.5289C6.96403 20.644 6.96362 22.4606 8.08121 23.5802L8.21468 23.7131L5.46417 26.4586C4.44198 25.9773 3.18255 26.1576 2.33903 27.0001L0.878707 28.4563C0.359285 28.9751 0.0733242 29.6671 0.0732422 30.4048C0.0732422 31.1426 0.359285 31.8347 0.878707 32.3535L2.7012 34.1738C3.02399 34.4963 3.5471 34.4959 3.86948 34.1732C4.19195 33.8504 4.19162 33.3272 3.86883 33.0049L2.04634 31.1846C1.83946 30.978 1.72552 30.701 1.72552 30.4049C1.72552 30.1088 1.83946 29.832 2.04585 29.6258L3.50625 28.1695C3.87112 27.8051 4.42959 27.7508 4.85369 28.0043C4.93812 28.1315 5.05632 28.2328 5.19503 28.2966L13.5698 36.6591C13.6104 36.7482 13.6665 36.8294 13.7355 36.8988C13.803 36.9661 13.8817 37.0212 13.9681 37.0616C14.1462 37.2625 14.244 37.5219 14.2431 37.7904C14.2431 38.0865 14.1291 38.3634 13.9223 38.57L12.4633 40.0272C12.0323 40.4564 11.331 40.4563 10.9013 40.0285L9.0788 38.2059C8.75617 37.8833 8.23314 37.8833 7.91051 38.2059C7.58788 38.5285 7.58788 39.0516 7.91051 39.3742L9.73431 41.1981C10.2711 41.7327 10.9761 41.9999 11.6814 41.9999C12.3869 41.9999 13.0927 41.7323 13.6301 41.1972L15.09 39.7391C15.6094 39.2203 15.8954 38.5283 15.8954 37.7904C15.8954 37.2638 15.749 36.761 15.4767 36.3274L18.5723 33.2356L18.5822 33.2255C18.9367 32.8591 19.9237 32.9277 20.8783 32.994C21.5566 33.0411 22.3127 33.0935 23.0515 33.0084L26.4414 36.3942C26.2218 36.7946 26.1045 37.2466 26.1045 37.7173C26.1045 38.4544 26.3906 39.146 26.91 39.6648L28.3699 41.1229C28.889 41.6414 29.5809 41.9271 30.3182 41.9271C31.0555 41.9271 31.7474 41.6415 32.2666 41.1229L41.1211 32.2791C41.6405 31.7604 41.9266 31.0683 41.9266 30.3306C41.9265 29.5929 41.6404 28.9008 41.1205 28.3816ZM19.1969 8.4849L22.7806 9.16322L20.6355 11.3074C20.3037 11.148 19.8489 10.8505 19.35 10.3733C18.6671 9.71996 18.1786 8.96569 18.1341 8.49524L18.1341 8.4945L18.134 8.49425C18.1312 8.46722 18.13 8.44005 18.1304 8.41288C18.2384 8.38663 18.5254 8.35751 19.1969 8.4849ZM15.0085 9.15846C15.427 8.74035 16.0772 8.69211 16.5501 9.01236C16.8181 10.136 17.7767 11.1544 18.2079 11.5671C18.5275 11.8729 19.553 12.7897 20.588 13.0417C20.7296 13.2449 20.8051 13.4867 20.8043 13.7342C20.8043 14.0595 20.6792 14.3636 20.4512 14.5913C20.2239 14.819 19.9193 14.9444 19.5935 14.9444C19.2676 14.9444 18.963 14.819 18.7346 14.5902L18.7345 14.5902L18.7341 14.5898L15.0084 10.8708C14.7813 10.644 14.6562 10.3399 14.6562 10.0147C14.6563 9.68945 14.7814 9.38536 15.0085 9.15846ZM12.8498 12.7635C13.0771 12.5359 13.3813 12.4104 13.7067 12.4104C14.0324 12.4104 14.3377 12.5361 14.5664 12.7646L17.5665 15.7587C18.0389 16.2319 18.0389 17.0018 17.5681 17.4733C17.3396 17.7009 17.0339 17.8263 16.7075 17.8263C16.3811 17.8263 16.0755 17.7009 15.8479 17.4743L15.8479 17.4742L13.5719 15.1987C13.5684 15.1952 13.5645 15.1919 13.5609 15.1883L12.8489 14.4766C12.6204 14.2484 12.4947 13.9438 12.4949 13.6187C12.4952 13.2948 12.6206 12.9917 12.8498 12.7635ZM10.6869 16.3678C10.9144 16.1406 11.2193 16.0155 11.5456 16.0155C11.8693 16.0155 12.1715 16.1388 12.398 16.362L14.681 18.6439C14.9086 18.8706 15.034 19.1744 15.034 19.4992C15.034 19.824 14.9086 20.1278 14.6801 20.3554C14.4527 20.5825 14.1481 20.7076 13.8223 20.7076C13.4961 20.7076 13.1905 20.5821 12.9628 20.3554L12.1352 19.5288L12.1346 19.5282L10.687 18.0823C10.4588 17.8543 10.3331 17.5498 10.3331 17.225C10.3331 16.9002 10.4588 16.5957 10.6869 16.3678ZM9.24811 20.6979C9.47657 20.4697 9.78189 20.344 10.1078 20.344C10.4336 20.344 10.7389 20.4696 10.9672 20.6976L11.796 21.5254C12.0237 21.7521 12.1491 22.0559 12.1491 22.3808C12.1491 22.7056 12.0236 23.0093 11.7943 23.2378C11.567 23.4654 11.2624 23.5909 10.9366 23.5909C10.6106 23.5909 10.3061 23.4655 10.0771 23.2362L9.97335 23.1328C9.97195 23.1314 9.97089 23.1299 9.96957 23.1286L9.96482 23.1244L9.24893 22.4113C8.77651 21.9379 8.7761 21.1693 9.24811 20.6979ZM26.0837 30.087C25.7612 29.7641 25.2381 29.7639 24.9154 30.0863L24.1804 30.8204C23.482 31.5188 22.2165 31.4308 20.9927 31.3459C19.6637 31.2536 18.2894 31.1583 17.4001 32.0713L14.3572 35.1105L6.74772 27.5122L9.44064 24.8241C9.88574 25.097 10.3993 25.2432 10.9367 25.2432C11.7045 25.2432 12.4244 24.9456 12.9621 24.4069C13.5034 23.8678 13.8016 23.1483 13.8016 22.3808C13.8016 22.3737 13.8011 22.3666 13.8011 22.3595C13.8082 22.3596 13.8154 22.36 13.8225 22.36C14.5892 22.36 15.3085 22.0633 15.8469 21.5255C16.3883 20.9864 16.6865 20.2668 16.6865 19.4994C16.6865 19.4923 16.686 19.4852 16.686 19.4781C16.6932 19.4781 16.7004 19.4786 16.7077 19.4786C17.4741 19.4786 18.1939 19.1822 18.7359 18.6423C19.2987 18.0787 19.577 17.3366 19.5717 16.5962C19.579 16.5962 19.5864 16.5966 19.5938 16.5966C20.3615 16.5966 21.0814 16.299 21.6199 15.7595C22.1596 15.2205 22.4569 14.5012 22.4569 13.7342C22.4569 13.1978 22.311 12.6851 22.0391 12.2409L24.3994 9.88157C24.5689 9.71262 24.7847 9.59764 25.0194 9.55114C25.044 9.54852 25.0683 9.54458 25.0924 9.53982C25.4571 9.48954 25.8401 9.60209 26.119 9.87984C26.5914 10.3531 26.5914 11.123 26.1207 11.5945L25.4019 12.3104C25.3995 12.3128 25.3969 12.3149 25.3946 12.3173L24.5666 13.1439C24.2437 13.4662 24.2434 13.9894 24.5659 14.3122C24.8884 14.635 25.4115 14.6353 25.7342 14.3129L26.4559 13.5922L26.4564 13.5917L26.5655 13.483C27.0392 13.0136 27.8067 13.0146 28.2799 13.4872C28.5077 13.7139 28.6331 14.0177 28.6331 14.3425C28.6331 14.6673 28.5077 14.971 28.2781 15.1996L27.5552 15.924L27.5549 15.9243L26.7271 16.7488C26.4038 17.0708 26.4027 17.5939 26.7247 17.9171C27.0467 18.2404 27.5697 18.2414 27.893 17.9195L28.7246 17.0912C28.9519 16.8635 29.2565 16.7381 29.5823 16.7381C29.9083 16.7381 30.2129 16.8635 30.4419 17.0929C30.6696 17.3197 30.7949 17.6234 30.7949 17.9483C30.7949 18.273 30.6696 18.5768 30.4406 18.8048L28.9993 20.2467C28.6767 20.5694 28.6768 21.0924 28.9994 21.415C29.0761 21.4918 29.1671 21.5527 29.2673 21.5942C29.3676 21.6357 29.475 21.657 29.5835 21.6568C29.795 21.6568 30.0064 21.5761 30.1677 21.4147L30.8741 20.7081C30.8781 20.7043 30.8825 20.7009 30.8865 20.6969C31.1138 20.4692 31.4184 20.3438 31.7442 20.3438C32.0701 20.3438 32.3747 20.4692 32.6028 20.6977C33.0747 21.1691 33.0743 21.9378 32.6028 22.4101L31.8846 23.1275L31.8838 23.1282L31.8831 23.129L30.7432 24.2676C30.4204 24.59 30.42 25.1131 30.7424 25.4359C30.8191 25.5128 30.9102 25.5739 31.0105 25.6154C31.1108 25.657 31.2184 25.6784 31.327 25.6782C31.5382 25.6782 31.7495 25.5977 31.9108 25.4367L32.4684 24.8797L35.1407 27.549L27.5319 35.1485L24.8057 32.4256C25.0017 32.2999 25.1836 32.1535 25.3483 31.9889L26.0829 31.2552C26.4058 30.9329 26.4062 30.4098 26.0837 30.087ZM39.9534 31.1101L31.0989 39.9539C30.8917 40.1608 30.6145 40.2747 30.3182 40.2747C30.0219 40.2747 29.7446 40.1608 29.5374 39.9538L28.0775 38.4957C27.8706 38.2892 27.7567 38.0127 27.7567 37.7173C27.7567 37.422 27.8706 37.1456 28.0775 36.9389L36.932 28.0951C37.1392 27.8882 37.4164 27.7742 37.7128 27.7742C38.0091 27.7742 38.2864 27.8882 38.4941 28.0956L39.9535 29.5509C40.1604 29.7576 40.2743 30.0343 40.2743 30.3305C40.2742 30.6267 40.1603 30.9036 39.9534 31.1101ZM9.9567 4.64051C10.0333 4.71715 10.1243 4.77792 10.2244 4.81934C10.3246 4.86075 10.4319 4.88199 10.5403 4.88184C10.7519 4.88184 10.9636 4.80096 11.125 4.63928C11.4473 4.31632 11.4468 3.79329 11.1238 3.47099L8.11345 0.466594C7.79058 0.144293 7.26747 0.144703 6.94516 0.467742C6.62286 0.790699 6.62336 1.31373 6.94631 1.63603L9.9567 4.64051ZM31.313 4.88184C31.5243 4.88184 31.7356 4.80129 31.8969 4.64026L34.9049 1.63579C35.2277 1.3134 35.2281 0.790289 34.9056 0.467496C34.5832 0.144703 34.0602 0.144375 33.7373 0.46684L30.7292 3.47132C30.4064 3.7937 30.4061 4.31681 30.7286 4.63961C30.8052 4.71652 30.8963 4.77752 30.9966 4.81909C31.0969 4.86067 31.2045 4.88199 31.313 4.88184Z" fill="#FE6152"/>
<path d="M5.15301 35.5362C4.83317 35.8616 4.8376 36.3847 5.16302 36.7045L5.1654 36.7068C5.31922 36.8586 5.52667 36.9435 5.74274 36.9432C5.95659 36.9432 6.17045 36.8605 6.33246 36.6957C6.6523 36.3703 6.64664 35.8461 6.3213 35.5262C5.99605 35.2064 5.47302 35.2109 5.15301 35.5362ZM28.1043 28.8969C28.23 28.8969 28.3574 28.8683 28.4771 28.808C28.8845 28.6025 29.0481 28.1057 28.8427 27.6983C28.6372 27.291 28.1404 27.1272 27.7331 27.3327L27.7285 27.335C27.3211 27.5405 27.1598 28.0361 27.3652 28.4435C27.5102 28.7313 27.8019 28.8969 28.1043 28.8969Z" fill="#FE6152"/>
</g>
<defs>
<clipPath id="clip0_54_312">
<rect width="42" height="42" fill="white"/>
</clipPath>
</defs>
</svg>
