<svg width="401" height="466" viewBox="0 0 401 466" fill="none" xmlns="http://www.w3.org/2000/svg">
<g opacity="0.14">
<mask id="mask0_59_2890" style="mask-type:alpha" maskUnits="userSpaceOnUse" x="0" y="-21" width="580" height="487">
<rect y="-21" width="580" height="487" fill="#FBCCCF"/>
</mask>
<g mask="url(#mask0_59_2890)">
<rect x="-225.401" y="136.714" width="820" height="2" transform="rotate(-34.7596 -225.401 136.714)" fill="#FBCCCF"/>
<rect x="-219.7" y="144.93" width="820" height="2" transform="rotate(-34.7596 -219.7 144.93)" fill="#FBCCCF"/>
<rect x="-213.999" y="153.146" width="820" height="2" transform="rotate(-34.7596 -213.999 153.146)" fill="#FBCCCF"/>
<rect x="-208.297" y="161.36" width="820" height="2" transform="rotate(-34.7596 -208.297 161.36)" fill="#FBCCCF"/>
<rect x="-202.596" y="169.576" width="820" height="2" transform="rotate(-34.7596 -202.596 169.576)" fill="#FBCCCF"/>
<rect x="-196.895" y="177.792" width="820" height="2" transform="rotate(-34.7596 -196.895 177.792)" fill="#FBCCCF"/>
<rect x="-191.193" y="186.007" width="820" height="2" transform="rotate(-34.7596 -191.193 186.007)" fill="#FBCCCF"/>
<rect x="-185.492" y="194.223" width="820" height="2" transform="rotate(-34.7596 -185.492 194.223)" fill="#FBCCCF"/>
<rect x="-179.791" y="202.438" width="820" height="2" transform="rotate(-34.7596 -179.791 202.438)" fill="#FBCCCF"/>
<rect x="-174.089" y="210.653" width="820" height="2" transform="rotate(-34.7596 -174.089 210.653)" fill="#FBCCCF"/>
<rect x="-168.388" y="218.869" width="820" height="2" transform="rotate(-34.7596 -168.388 218.869)" fill="#FBCCCF"/>
<rect x="-162.687" y="227.085" width="820" height="2" transform="rotate(-34.7596 -162.687 227.085)" fill="#FBCCCF"/>
<rect x="-156.985" y="235.3" width="820" height="2" transform="rotate(-34.7596 -156.985 235.3)" fill="#FBCCCF"/>
<rect x="-151.284" y="243.516" width="820" height="2" transform="rotate(-34.7596 -151.284 243.516)" fill="#FBCCCF"/>
<rect x="-145.583" y="251.731" width="820" height="2" transform="rotate(-34.7596 -145.583 251.731)" fill="#FBCCCF"/>
<rect x="-139.881" y="259.946" width="820" height="2" transform="rotate(-34.7596 -139.881 259.946)" fill="#FBCCCF"/>
<rect x="-134.18" y="268.162" width="820" height="2" transform="rotate(-34.7596 -134.18 268.162)" fill="#FBCCCF"/>
<rect x="-128.479" y="276.378" width="820" height="2" transform="rotate(-34.7596 -128.479 276.378)" fill="#FBCCCF"/>
<rect x="-122.777" y="284.594" width="820" height="2" transform="rotate(-34.7596 -122.777 284.594)" fill="#FBCCCF"/>
<rect x="-117.076" y="292.809" width="820" height="2" transform="rotate(-34.7596 -117.076 292.809)" fill="#FBCCCF"/>
<rect x="-111.375" y="301.024" width="820" height="2" transform="rotate(-34.7596 -111.375 301.024)" fill="#FBCCCF"/>
<rect x="-105.673" y="309.24" width="820" height="2" transform="rotate(-34.7596 -105.673 309.24)" fill="#FBCCCF"/>
<rect x="-99.9717" y="317.455" width="820" height="2" transform="rotate(-34.7596 -99.9717 317.455)" fill="#FBCCCF"/>
<rect x="-94.2705" y="325.671" width="820" height="2" transform="rotate(-34.7596 -94.2705 325.671)" fill="#FBCCCF"/>
<rect x="-88.5691" y="333.887" width="820" height="2" transform="rotate(-34.7596 -88.5691 333.887)" fill="#FBCCCF"/>
<rect x="-82.8677" y="342.102" width="820" height="2" transform="rotate(-34.7596 -82.8677 342.102)" fill="#FBCCCF"/>
<rect x="-77.1663" y="350.317" width="820" height="2" transform="rotate(-34.7596 -77.1663 350.317)" fill="#FBCCCF"/>
<rect x="-71.4651" y="358.533" width="820" height="2" transform="rotate(-34.7596 -71.4651 358.533)" fill="#FBCCCF"/>
<rect x="-65.7637" y="366.748" width="820" height="2" transform="rotate(-34.7596 -65.7637 366.748)" fill="#FBCCCF"/>
<rect x="-60.0623" y="374.964" width="820" height="2" transform="rotate(-34.7596 -60.0623 374.964)" fill="#FBCCCF"/>
<rect x="-70.9583" y="399.61" width="820" height="2" transform="rotate(-34.7596 -70.9583 399.61)" fill="#FBCCCF"/>
<rect x="-65.2571" y="407.826" width="820" height="2" transform="rotate(-34.7596 -65.2571 407.826)" fill="#FBCCCF"/>
<rect x="-59.5557" y="416.042" width="820" height="2" transform="rotate(-34.7596 -59.5557 416.042)" fill="#FBCCCF"/>
<rect x="-53.8542" y="424.257" width="820" height="2" transform="rotate(-34.7596 -53.8542 424.257)" fill="#FBCCCF"/>
<rect x="-48.1531" y="432.473" width="820" height="2" transform="rotate(-34.7596 -48.1531 432.473)" fill="#FBCCCF"/>
<rect x="-42.4517" y="440.688" width="820" height="2" transform="rotate(-34.7596 -42.4517 440.688)" fill="#FBCCCF"/>
<rect x="-36.7502" y="448.903" width="820" height="2" transform="rotate(-34.7596 -36.7502 448.903)" fill="#FBCCCF"/>
<rect x="-31.0488" y="457.119" width="820" height="2" transform="rotate(-34.7596 -31.0488 457.119)" fill="#FBCCCF"/>
<rect x="-25.3477" y="465.335" width="820" height="2" transform="rotate(-34.7596 -25.3477 465.335)" fill="#FBCCCF"/>
<rect x="-19.6462" y="473.55" width="820" height="2" transform="rotate(-34.7596 -19.6462 473.55)" fill="#FBCCCF"/>
<rect x="-13.9448" y="481.766" width="820" height="2" transform="rotate(-34.7596 -13.9448 481.766)" fill="#FBCCCF"/>
<rect x="-8.24365" y="489.981" width="820" height="2" transform="rotate(-34.7596 -8.24365 489.981)" fill="#FBCCCF"/>
<rect x="-2.54224" y="498.196" width="820" height="2" transform="rotate(-34.7596 -2.54224 498.196)" fill="#FBCCCF"/>
<rect x="3.15918" y="506.412" width="820" height="2" transform="rotate(-34.7596 3.15918 506.412)" fill="#FBCCCF"/>
<rect x="8.86035" y="514.628" width="820" height="2" transform="rotate(-34.7596 8.86035 514.628)" fill="#FBCCCF"/>
<rect x="14.5618" y="522.843" width="820" height="2" transform="rotate(-34.7596 14.5618 522.843)" fill="#FBCCCF"/>
<rect x="20.2632" y="531.059" width="820" height="2" transform="rotate(-34.7596 20.2632 531.059)" fill="#FBCCCF"/>
<rect x="25.9646" y="539.274" width="820" height="2" transform="rotate(-34.7596 25.9646 539.274)" fill="#FBCCCF"/>
<rect x="31.6658" y="547.49" width="820" height="2" transform="rotate(-34.7596 31.6658 547.49)" fill="#FBCCCF"/>
<rect x="37.3672" y="555.705" width="820" height="2" transform="rotate(-34.7596 37.3672 555.705)" fill="#FBCCCF"/>
<rect x="43.0686" y="563.921" width="820" height="2" transform="rotate(-34.7596 43.0686 563.921)" fill="#FBCCCF"/>
<rect x="48.7698" y="572.137" width="820" height="2" transform="rotate(-34.7596 48.7698 572.137)" fill="#FBCCCF"/>
<rect x="54.4712" y="580.352" width="820" height="2" transform="rotate(-34.7596 54.4712 580.352)" fill="#FBCCCF"/>
<rect x="60.1726" y="588.567" width="820" height="2" transform="rotate(-34.7596 60.1726 588.567)" fill="#FBCCCF"/>
<rect x="65.874" y="596.783" width="820" height="2" transform="rotate(-34.7596 65.874 596.783)" fill="#FBCCCF"/>
<rect x="71.5752" y="604.998" width="820" height="2" transform="rotate(-34.7596 71.5752 604.998)" fill="#FBCCCF"/>
<rect x="77.2766" y="613.214" width="820" height="2" transform="rotate(-34.7596 77.2766 613.214)" fill="#FBCCCF"/>
<rect x="82.978" y="621.43" width="820" height="2" transform="rotate(-34.7596 82.978 621.43)" fill="#FBCCCF"/>
<rect x="88.6792" y="629.644" width="820" height="2" transform="rotate(-34.7596 88.6792 629.644)" fill="#FBCCCF"/>
<rect x="94.3806" y="637.86" width="820" height="2" transform="rotate(-34.7596 94.3806 637.86)" fill="#FBCCCF"/>
<rect x="100.082" y="646.076" width="820" height="2" transform="rotate(-34.7596 100.082 646.076)" fill="#FBCCCF"/>
<rect x="105.783" y="654.292" width="820" height="2" transform="rotate(-34.7596 105.783 654.292)" fill="#FBCCCF"/>
<rect x="111.485" y="662.507" width="820" height="2" transform="rotate(-34.7596 111.485 662.507)" fill="#FBCCCF"/>
<rect x="117.186" y="670.723" width="820" height="2" transform="rotate(-34.7596 117.186 670.723)" fill="#FBCCCF"/>
<rect x="122.887" y="678.938" width="820" height="2" transform="rotate(-34.7596 122.887 678.938)" fill="#FBCCCF"/>
<rect x="128.589" y="687.153" width="820" height="2" transform="rotate(-34.7596 128.589 687.153)" fill="#FBCCCF"/>
</g>
</g>
</svg>
