<svg width="162" height="101" viewBox="0 0 162 101" fill="none" xmlns="http://www.w3.org/2000/svg">
<g clip-path="url(#clip0_318_804)">
<g clip-path="url(#clip1_318_804)">
<g clip-path="url(#clip2_318_804)">
<g clip-path="url(#clip3_318_804)">
<g clip-path="url(#clip4_318_804)">
<g clip-path="url(#clip5_318_804)">
<path d="M78.1308 26.9961H75.9041C75.3521 26.9961 74.9045 27.4436 74.9045 27.9956V73.0867C74.9045 73.6387 75.3521 74.0861 75.9041 74.0861H78.1308C78.6828 74.0861 79.1303 73.6387 79.1303 73.0867V27.9956C79.1303 27.4436 78.6828 26.9961 78.1308 26.9961Z" fill="white"/>
<g clip-path="url(#clip6_318_804)">
<g clip-path="url(#clip7_318_804)">
<g clip-path="url(#clip8_318_804)">
<g clip-path="url(#clip9_318_804)">
<path d="M39.0432 69.5182H30.9236V27.5046H39.0432V69.5182ZM61.0053 73.969L54.3042 69.5672C53.065 69.7954 52.364 69.9095 52.2009 69.9095C48.8096 69.9095 46.2335 68.9378 44.4726 66.9945C42.7117 65.0576 41.8313 62.2143 41.8313 58.4646V38.1669C41.8313 34.5476 42.7182 31.7989 44.4922 29.9207C46.2726 28.0491 48.8422 27.1133 52.2009 27.1133C55.5596 27.1133 58.126 28.0491 59.8999 29.9207C61.6803 31.7989 62.5705 34.5476 62.5705 38.1669V58.4646C62.5705 61.9209 61.7879 64.6598 60.2227 66.6815L63.8423 68.9802L61.0053 73.969ZM52.2009 62.1817C53.0161 62.1817 53.5379 61.7905 53.7661 61.0079C53.9944 60.2253 54.1085 59.2145 54.1085 57.9755V38.3137C54.1085 37.2376 53.9683 36.3899 53.6879 35.7703C53.414 35.1508 52.902 34.8411 52.152 34.8411C50.815 34.8411 50.1465 35.9823 50.1465 38.2648V58.1222C50.1465 59.2961 50.277 60.2645 50.5379 61.0275C50.7987 61.797 51.3531 62.1817 52.2009 62.1817Z" fill="white"/>
</g>
</g>
</g>
</g>
<g clip-path="url(#clip10_318_804)">
<g clip-path="url(#clip11_318_804)">
<path d="M102.986 69.5514C102.684 69.5832 102.38 69.6029 102.083 69.6109C101.914 69.6131 101.754 69.6822 101.636 69.803C101.518 69.9238 101.454 70.0864 101.456 70.255C101.458 70.4236 101.527 70.5844 101.648 70.7021C101.769 70.8197 101.931 70.8845 102.1 70.8823H102.117C102.447 70.8734 102.783 70.8505 103.117 70.8165C103.285 70.799 103.439 70.7157 103.545 70.5848C103.652 70.4538 103.702 70.286 103.684 70.1183C103.667 69.9506 103.583 69.7967 103.452 69.6904C103.321 69.5842 103.154 69.534 102.986 69.5514Z" fill="#FE6152"/>
<path d="M99.9883 69.4709C99.6923 69.422 99.3967 69.3594 99.1097 69.2853C98.9464 69.2432 98.773 69.2676 98.6277 69.3533C98.4825 69.4389 98.3772 69.5788 98.335 69.7421C98.2929 69.9054 98.3173 70.0787 98.403 70.224C98.4886 70.3693 98.6285 70.4745 98.7918 70.5167C99.1148 70.5996 99.4469 70.6699 99.7791 70.7252C99.8138 70.7309 99.8489 70.7338 99.884 70.7338C100.044 70.7341 100.198 70.6741 100.316 70.5659C100.433 70.4577 100.506 70.3092 100.519 70.1499C100.532 69.9906 100.484 69.8322 100.386 69.7064C100.287 69.5805 100.145 69.4963 99.9873 69.4706L99.9883 69.4709Z" fill="#FE6152"/>
<path d="M105.938 68.8865C105.65 68.9863 105.357 69.0772 105.067 69.1564C104.904 69.201 104.766 69.3083 104.683 69.4548C104.599 69.6014 104.577 69.775 104.622 69.9376C104.666 70.1003 104.774 70.2385 104.92 70.322C105.067 70.4054 105.241 70.4272 105.403 70.3826C105.721 70.2962 106.039 70.1967 106.354 70.0883C106.513 70.0332 106.644 69.917 106.718 69.7653C106.791 69.6136 106.802 69.4389 106.747 69.2795C106.692 69.1202 106.575 68.9892 106.424 68.9155C106.272 68.8418 106.097 68.8314 105.938 68.8865Z" fill="#FE6152"/>
<path d="M97.1598 68.5526C96.895 68.4185 96.634 68.2704 96.3838 68.1121C96.2413 68.022 96.0688 67.9922 95.9043 68.0292C95.7398 68.0663 95.5968 68.1671 95.5066 68.3096C95.4165 68.4522 95.3867 68.6246 95.4237 68.7891C95.4608 68.9536 95.5617 69.0966 95.7042 69.1868C95.9884 69.3663 96.2846 69.5348 96.5853 69.6867C96.7358 69.7629 96.9103 69.7762 97.0706 69.7237C97.2308 69.6712 97.3636 69.5572 97.4398 69.4067C97.516 69.2563 97.5293 69.0818 97.4767 68.9215C97.4242 68.7613 97.3102 68.6288 97.1598 68.5526Z" fill="#FE6152"/>
<path d="M108.704 67.605C108.44 67.7598 108.169 67.9086 107.9 68.0468C107.825 68.0849 107.759 68.1373 107.705 68.2009C107.651 68.2646 107.61 68.3382 107.585 68.4177C107.559 68.4972 107.549 68.5809 107.556 68.6641C107.563 68.7473 107.586 68.8284 107.624 68.9027C107.662 68.9769 107.715 69.043 107.778 69.097C107.842 69.1511 107.916 69.192 107.995 69.2176C108.075 69.2432 108.158 69.2529 108.242 69.2461C108.325 69.2393 108.406 69.2162 108.48 69.1781C108.771 69.029 109.063 68.8688 109.347 68.7013C109.493 68.616 109.598 68.4765 109.641 68.3133C109.683 68.1502 109.659 67.9768 109.574 67.8313C109.489 67.6859 109.349 67.5802 109.186 67.5377C109.023 67.4951 108.85 67.5191 108.704 67.6044L108.704 67.605Z" fill="#FE6152"/>
<path d="M94.1542 66.1521C94.1014 66.0857 94.0359 66.0306 93.9614 65.9899C93.8869 65.9493 93.8051 65.9239 93.7207 65.9153C93.6363 65.9068 93.551 65.9152 93.4699 65.9401C93.3888 65.965 93.3136 66.0059 93.2485 66.0604C93.1835 66.1149 93.13 66.1818 93.0912 66.2572C93.0524 66.3327 93.0291 66.4151 93.0227 66.4997C93.0163 66.5843 93.0269 66.6693 93.0538 66.7497C93.0807 66.8302 93.1235 66.9044 93.1796 66.9681C93.3958 67.2265 93.6246 67.4766 93.8621 67.7131C93.9822 67.8288 94.1428 67.8926 94.3095 67.8909C94.4762 67.8893 94.6356 67.8222 94.7533 67.7041C94.871 67.5861 94.9377 67.4266 94.9389 67.2599C94.9401 67.0932 94.8758 66.9327 94.7598 66.813C94.5493 66.6032 94.3459 66.3813 94.1542 66.1521Z" fill="#FE6152"/>
<path d="M111.2 65.8282C110.965 66.0274 110.723 66.222 110.483 66.407C110.349 66.5095 110.261 66.661 110.239 66.8282C110.217 66.9953 110.262 67.1644 110.365 67.2982C110.468 67.4321 110.619 67.5197 110.786 67.5418C110.953 67.5639 111.123 67.5187 111.256 67.4162C111.514 67.2184 111.773 67.0103 112.023 66.7973C112.15 66.6878 112.229 66.5324 112.242 66.365C112.255 66.1977 112.202 66.0319 112.093 65.9039C111.984 65.776 111.829 65.6962 111.662 65.682C111.495 65.6678 111.329 65.7203 111.2 65.8282Z" fill="#FE6152"/>
<path d="M92.9762 64.4177C92.8338 64.1568 92.6987 63.8844 92.5757 63.6088C92.5416 63.5326 92.4929 63.4638 92.4323 63.4064C92.3716 63.349 92.3003 63.3041 92.2223 63.2743C92.1443 63.2445 92.0612 63.2304 91.9777 63.2327C91.8943 63.235 91.8121 63.2537 91.7359 63.2877C91.6596 63.3218 91.5909 63.3705 91.5335 63.4312C91.4761 63.4918 91.4312 63.5632 91.4014 63.6411C91.3716 63.7191 91.3574 63.8022 91.3597 63.8857C91.362 63.9691 91.3808 64.0513 91.4148 64.1275C91.5518 64.4339 91.7009 64.7365 91.8598 65.027C91.8999 65.1003 91.9539 65.165 92.0189 65.2174C92.0839 65.2698 92.1586 65.3088 92.2387 65.3324C92.3188 65.3559 92.4028 65.3634 92.4858 65.3545C92.5688 65.3456 92.6493 65.3204 92.7226 65.2804C92.7958 65.2404 92.8605 65.1863 92.9129 65.1213C92.9653 65.0563 93.0044 64.9816 93.0279 64.9015C93.0514 64.8214 93.059 64.7375 93.05 64.6544C93.0411 64.5714 93.0159 64.491 92.9759 64.4177H92.9762Z" fill="#FE6152"/>
<path d="M91.8871 61.6116C91.8137 61.3208 91.7489 61.0217 91.6948 60.7216C91.6648 60.5557 91.57 60.4086 91.4315 60.3125C91.2929 60.2164 91.1218 60.1793 90.9559 60.2094C90.79 60.2395 90.6428 60.3342 90.5468 60.4727C90.4507 60.6113 90.4136 60.7824 90.4437 60.9483C90.5031 61.276 90.574 61.6037 90.6544 61.9222C90.6744 62.0036 90.7103 62.0802 90.7601 62.1477C90.8098 62.2152 90.8724 62.2722 90.9443 62.3154C91.0161 62.3586 91.0958 62.3871 91.1788 62.3994C91.2617 62.4117 91.3463 62.4074 91.4276 62.3869C91.5089 62.3663 91.5853 62.3299 91.6524 62.2797C91.7196 62.2295 91.7762 62.1665 91.8189 62.0944C91.8616 62.0222 91.8896 61.9424 91.9013 61.8593C91.913 61.7763 91.9082 61.6918 91.8871 61.6107V61.6116Z" fill="#FE6152"/>
<path d="M90.8591 59.2608C90.9426 59.258 91.0247 59.2388 91.1007 59.2043C91.1767 59.1698 91.2452 59.1207 91.3022 59.0597C91.3592 58.9987 91.4037 58.9271 91.4331 58.8489C91.4624 58.7708 91.4761 58.6876 91.4733 58.6041C91.4631 58.2988 91.4618 57.9932 91.4694 57.6874C91.4737 57.5188 91.4107 57.3555 91.2945 57.2333C91.2369 57.1728 91.168 57.1242 91.0917 57.0903C91.0153 57.0564 90.9331 57.0379 90.8496 57.0358C90.681 57.0316 90.5176 57.0946 90.3954 57.2108C90.2732 57.327 90.2022 57.4871 90.1979 57.6557C90.1897 57.9858 90.1911 58.3162 90.2021 58.6467C90.2076 58.8116 90.277 58.9679 90.3956 59.0825C90.5143 59.1972 90.6728 59.2612 90.8378 59.2611L90.8591 59.2608Z" fill="#FE6152"/>
<path d="M90.9335 56.0855C90.9651 56.0903 90.9969 56.0927 91.0289 56.0928C91.1808 56.0926 91.3277 56.038 91.4428 55.9389C91.558 55.8398 91.6339 55.7027 91.6567 55.5525C91.7021 55.2524 91.7565 54.9469 91.8181 54.6453C91.8348 54.5635 91.8353 54.4792 91.8194 54.3972C91.8035 54.3152 91.7716 54.2372 91.7256 54.1675C91.6795 54.0979 91.6202 54.038 91.551 53.9912C91.4818 53.9445 91.4041 53.9119 91.3223 53.8952C91.2404 53.8785 91.1561 53.8781 91.0742 53.8939C90.9922 53.9098 90.9141 53.9417 90.8445 53.9877C90.7748 54.0338 90.7149 54.0931 90.6682 54.1623C90.6214 54.2315 90.5888 54.3092 90.5721 54.391C90.5072 54.7136 90.4494 55.0401 90.4004 55.3614C90.3879 55.444 90.3917 55.5282 90.4117 55.6092C90.4317 55.6903 90.4675 55.7666 90.517 55.8339C90.5665 55.9011 90.6287 55.9579 90.7002 56.0011C90.7717 56.0443 90.8509 56.073 90.9335 56.0855Z" fill="#FE6152"/>
<path d="M91.5683 52.9728C91.7286 53.0251 91.903 53.0115 92.0533 52.935C92.2036 52.8586 92.3174 52.7256 92.3696 52.5654C92.465 52.2752 92.5677 51.9821 92.6767 51.6947C92.7063 51.6167 92.7203 51.5336 92.7177 51.4501C92.7152 51.3667 92.6963 51.2845 92.6621 51.2084C92.6278 51.1323 92.5789 51.0636 92.5181 51.0064C92.4573 50.9492 92.3859 50.9045 92.3078 50.8748C92.2297 50.8452 92.1466 50.8313 92.0631 50.8338C91.9797 50.8363 91.8976 50.8552 91.8214 50.8895C91.7453 50.9237 91.6766 50.9726 91.6194 51.0334C91.5621 51.0942 91.5174 51.1657 91.4878 51.2437C91.3718 51.5501 91.2618 51.8623 91.1611 52.1715C91.1088 52.3318 91.1224 52.5062 91.1987 52.6565C91.2751 52.8068 91.408 52.9205 91.5683 52.9728Z" fill="#FE6152"/>
<path d="M92.6933 50.002C92.7678 50.0398 92.8489 50.0626 92.9322 50.069C93.0154 50.0755 93.0991 50.0654 93.1785 50.0395C93.2579 50.0136 93.3314 49.9723 93.3948 49.918C93.4582 49.8637 93.5103 49.7974 93.5481 49.7229C93.687 49.4499 93.8342 49.1759 93.9855 48.9083C94.0285 48.8355 94.0565 48.755 94.068 48.6712C94.0795 48.5875 94.0741 48.5024 94.0523 48.4208C94.0305 48.3391 93.9926 48.2627 93.9409 48.1959C93.8892 48.129 93.8247 48.0732 93.7511 48.0316C93.6776 47.99 93.5965 47.9635 93.5126 47.9536C93.4287 47.9437 93.3436 47.9506 93.2624 47.974C93.1812 47.9973 93.1055 48.0366 93.0396 48.0896C92.9738 48.1426 92.9192 48.2081 92.879 48.2824C92.7181 48.5666 92.5611 48.8577 92.4142 49.1479C92.3381 49.2982 92.3247 49.4726 92.377 49.6327C92.4294 49.7929 92.5431 49.9257 92.6933 50.002Z" fill="#FE6152"/>
<path d="M95.5955 45.4602C95.5299 45.4085 95.4548 45.3702 95.3745 45.3476C95.2941 45.3249 95.21 45.3183 95.1271 45.3282C95.0442 45.338 94.964 45.364 94.8912 45.4049C94.8184 45.4457 94.7543 45.5004 94.7026 45.566C94.4998 45.8232 94.3014 46.0873 94.1123 46.3511C94.0625 46.4189 94.0267 46.4959 94.0069 46.5776C93.9871 46.6593 93.9837 46.7442 93.9969 46.8272C94.0101 46.9103 94.0397 46.9899 94.0839 47.0614C94.1281 47.133 94.1861 47.1951 94.2544 47.244C94.3228 47.293 94.4002 47.328 94.4821 47.3468C94.5641 47.3657 94.649 47.3681 94.7319 47.354C94.8148 47.3398 94.894 47.3093 94.9651 47.2643C95.0361 47.2193 95.0975 47.1606 95.1457 47.0917C95.3237 46.8435 95.5103 46.5949 95.7014 46.353C95.7531 46.2874 95.7913 46.2123 95.814 46.132C95.8366 46.0516 95.8432 45.9676 95.8334 45.8847C95.8236 45.8018 95.7975 45.7216 95.7567 45.6488C95.7159 45.5759 95.6611 45.5118 95.5955 45.4602Z" fill="#FE6152"/>
<path d="M119.678 46.5287C119.604 46.5713 119.54 46.6284 119.489 46.6965C119.438 46.7646 119.401 46.8423 119.38 46.925L120.607 46.8958C120.59 46.8501 120.57 46.8059 120.546 46.7636C120.462 46.6174 120.323 46.5105 120.16 46.4664C119.998 46.4224 119.824 46.4448 119.678 46.5287Z" fill="#FE6152"/>
<path d="M116.7 55.5483L117.142 54.981L115.789 54.5678C114.757 55.0309 113.664 55.3459 112.544 55.5035C112.536 55.395 112.5 55.2905 112.44 55.2C112.125 54.6899 111.707 54.2507 111.213 53.9102C110.72 53.5697 110.161 53.3353 109.572 53.2216C107.64 52.8758 105.809 53.9527 105.312 54.2756C104.33 53.7661 103.421 53.1244 102.612 52.3685C102.68 52.3192 102.742 52.264 102.8 52.2035C103.351 51.6216 103.29 50.7386 103.205 50.2646C103.182 50.0059 103.208 49.7451 103.28 49.4957L103.29 49.4512C103.332 49.2766 103.386 49.105 103.452 48.9376C103.635 48.5183 103.724 48.064 103.712 47.6067C103.64 46.636 102.949 46.0445 102.395 45.5693C101.944 45.1824 101.554 44.8484 101.503 44.4021C101.445 43.8667 101.439 43.3271 101.485 42.7906C101.487 42.7669 101.488 42.7431 101.487 42.7194C101.455 41.6705 100.565 40.9791 99.0868 40.8243C99.1733 40.451 99.2767 40.0845 99.397 39.7249C99.5048 39.7481 99.6141 39.7633 99.7241 39.7703C100.489 39.7703 101.163 39.085 101.667 38.4833C102.023 38.112 102.46 37.8268 102.943 37.6496C103.031 37.6089 103.12 37.5679 103.208 37.5256C103.536 37.3953 103.834 37.1994 104.083 36.9499C104.332 36.7005 104.527 36.4027 104.657 36.0749C104.844 35.5311 104.678 34.3766 104.666 34.2851C104.634 33.9503 104.569 33.6194 104.473 33.2972C105.897 32.4061 107.493 31.8243 109.157 31.5897C109.161 31.7995 109.237 32.2763 109.051 32.4301C108.907 32.5272 108.75 32.6028 108.585 32.6545C108.469 32.6987 108.354 32.7429 108.244 32.7934C107.688 33.017 107.179 33.3402 106.74 33.747C106.244 34.2555 106.29 34.6958 106.415 34.9768C106.477 35.1141 106.585 35.2252 106.721 35.2903C106.856 35.3553 107.011 35.3701 107.156 35.3319C107.302 35.2938 107.429 35.2052 107.516 35.0819C107.602 34.9587 107.642 34.8088 107.628 34.6589L107.649 34.6376C107.981 34.346 108.362 34.1137 108.773 33.9507C108.858 33.9116 108.947 33.8783 109.036 33.8446C109.333 33.7479 109.612 33.6016 109.86 33.412C110.436 32.9352 110.432 32.2445 110.429 31.7858V31.7261C110.429 31.6545 110.429 31.569 110.426 31.4791C110.568 31.474 110.71 31.468 110.854 31.468C111.767 31.4686 112.677 31.573 113.567 31.7791C113.39 32.0262 113.269 32.3087 113.212 32.6073C113.155 32.9058 113.164 33.2131 113.238 33.508C113.242 33.5267 113.248 33.5451 113.254 33.5633C113.308 33.7296 113.333 33.9042 113.326 34.0791C112.765 34.0372 110.505 33.9653 110.318 35.4777C110.314 35.5066 110.31 35.5375 110.308 35.5692C110.317 35.8122 110.262 36.0532 110.149 36.2685C110.092 36.3057 110.032 36.3395 109.97 36.3696C109.713 36.4777 109.491 36.6548 109.328 36.8813C109.198 37.0924 108.801 37.7335 109.14 38.3158C109.524 38.9747 110.422 38.9414 111.559 38.8991C112.477 38.8648 113.736 38.818 114.176 39.2735C114.262 39.3734 114.323 39.4912 114.357 39.6181C114.391 39.745 114.395 39.8778 114.371 40.0068C114.342 40.0656 114.159 40.1657 113.728 40.1451L113.658 40.1416C113.092 40.1385 112.527 40.088 111.969 39.9906C110.908 39.6661 109.585 39.2627 108.196 39.6197C107.432 39.8322 106.748 40.2672 106.232 40.8694C105.716 41.4715 105.391 42.2135 105.298 43.001C105.145 44.5798 105.68 45.6672 106.89 46.233L107.014 46.2908C107.596 46.6271 108.26 46.794 108.932 46.7727C108.957 46.7706 108.981 46.7671 109.006 46.7622C109.186 46.726 109.928 46.6525 110.258 46.9529C110.317 47.0117 110.362 47.0835 110.389 47.1627C110.491 47.1453 110.595 47.1354 110.698 47.1328L111.686 47.1093C111.626 46.6877 111.423 46.2996 111.111 46.0098C110.316 45.2912 109.081 45.4583 108.8 45.5079C108.36 45.4946 107.932 45.3683 107.555 45.1411L107.428 45.0817C106.929 44.8484 106.436 44.4333 106.563 43.1253C106.63 42.5975 106.85 42.1009 107.196 41.6969C107.543 41.2929 108 40.9992 108.511 40.852C109.478 40.6037 110.44 40.8542 111.597 41.207C112.254 41.3391 112.923 41.4077 113.594 41.4121L113.661 41.4155C113.934 41.4489 114.211 41.4272 114.476 41.3518C114.74 41.2763 114.987 41.1487 115.202 40.9763C115.45 40.758 115.605 40.4533 115.637 40.1244C115.677 39.813 115.649 39.4967 115.554 39.1973C115.46 38.8979 115.301 38.6227 115.089 38.3908C114.255 37.5269 112.733 37.5838 111.51 37.628C111.128 37.6501 110.744 37.6501 110.361 37.628L110.384 37.5886C110.424 37.5622 110.501 37.5221 110.555 37.4932C110.755 37.4033 110.937 37.2753 111.089 37.1162C111.403 36.6848 111.575 36.1657 111.579 35.6319C111.598 35.4755 112.421 35.2794 113.264 35.3483C113.278 35.3483 113.293 35.3502 113.308 35.3506C113.507 35.36 113.706 35.3214 113.887 35.2382C114.069 35.155 114.227 35.0294 114.35 34.8722C114.777 34.2848 114.546 33.4259 114.469 33.1876C114.438 32.993 114.464 32.7935 114.545 32.6138C114.626 32.4342 114.759 32.2824 114.925 32.1774C116.667 32.8055 118.241 33.8235 119.528 35.1537C120.816 36.4839 121.782 38.0908 122.352 39.8517C121.818 39.8389 121.286 39.9332 120.789 40.1289C120.717 40.1524 120.633 40.1804 120.559 40.2032C120.116 39.8109 119.551 39.5822 118.96 39.5551C118.731 39.5432 118.503 39.5844 118.294 39.6754C118.084 39.7665 117.898 39.905 117.751 40.0799C117.604 40.2549 117.499 40.4616 117.446 40.6838C117.392 40.9061 117.39 41.1377 117.441 41.3606C117.487 41.5297 117.553 41.6928 117.637 41.8466C117.652 41.8761 117.669 41.9117 117.687 41.9486C117.567 41.9592 117.446 41.9412 117.334 41.8958C117.175 41.7124 116.967 41.5783 116.735 41.5092C116.502 41.4401 116.255 41.4391 116.022 41.5061C115.824 41.5799 115.651 41.7106 115.527 41.8818C115.403 42.053 115.332 42.2572 115.323 42.4686C115.285 42.8304 115.322 43.1961 115.431 43.543C115.541 43.89 115.72 44.2108 115.958 44.4857C116.313 44.8493 116.755 45.1149 117.243 45.2568L117.176 45.37C117.09 45.5162 117.004 45.664 116.91 45.8013C116.797 45.9691 116.668 46.1344 116.531 46.3099C116.358 46.5324 116.183 46.759 116.026 47.005L117.63 46.9669C117.743 46.8216 117.856 46.6729 117.963 46.5155C118.069 46.3582 118.172 46.1853 118.272 46.0155C118.319 45.9358 118.365 45.8566 118.412 45.7797C118.523 45.639 118.6 45.4752 118.638 45.3006C118.676 45.126 118.674 44.945 118.633 44.7711C118.586 44.6387 118.509 44.5186 118.409 44.42C118.309 44.3214 118.188 44.2468 118.055 44.2019C117.954 44.1621 117.851 44.1249 117.749 44.0884C117.437 44.0089 117.148 43.8558 116.908 43.6418C116.734 43.4415 116.625 43.1932 116.595 42.9298C116.995 43.1763 117.47 43.2723 117.934 43.2006C118.144 43.1826 118.346 43.1134 118.523 42.9989C118.7 42.8845 118.846 42.7283 118.948 42.5443C119.177 42.0923 118.946 41.6253 118.776 41.2843C118.742 41.215 118.69 41.1101 118.681 41.0815C118.674 41.0493 118.674 41.0158 118.682 40.9838C118.69 40.9517 118.705 40.922 118.727 40.8968C118.745 40.8721 118.77 40.8526 118.799 40.8403C118.827 40.828 118.859 40.8233 118.89 40.8266C119.05 40.8276 119.209 40.861 119.356 40.9247C119.504 40.9885 119.637 41.0812 119.748 41.1975C120.108 41.6953 120.708 41.4956 121.191 41.3354C121.599 41.1994 122.158 41.0135 122.455 41.1692C122.634 41.2975 122.756 41.4908 122.794 41.7077C123.058 43.4258 122.947 45.1807 122.47 46.8521L123.078 46.8375L123.673 46.0454C123.8 45.881 123.927 45.7184 124.054 45.5575C124.465 42.8624 124.04 40.1063 122.837 37.6598C121.634 35.2133 119.711 33.1936 117.326 31.8724C114.941 30.5511 112.209 29.9916 109.497 30.269C106.785 30.5464 104.222 31.6475 102.155 33.4242C100.087 35.2009 98.6124 37.568 97.9298 40.2073C97.2473 42.8467 97.3891 45.6317 98.3364 48.1881C99.2837 50.7444 100.991 52.9495 103.229 54.5068C105.466 56.0642 108.127 56.8992 110.854 56.8995C112.88 56.9015 114.88 56.4392 116.7 55.5483ZM103.356 34.0877C103.377 34.2241 103.395 34.3592 103.405 34.4447C103.419 34.5559 103.432 34.6554 103.445 34.7307C103.521 35.0352 103.525 35.3531 103.456 35.6592C103.381 35.8269 103.271 35.9771 103.135 36.1005C102.998 36.2239 102.838 36.3176 102.664 36.376L102.409 36.4942C101.753 36.7445 101.165 37.1457 100.693 37.6655C100.473 37.9505 100.214 38.202 99.9222 38.4121C100.72 36.7263 101.894 35.2466 103.356 34.0877ZM102.258 48.505C102.171 48.7276 102.101 48.9561 102.047 49.1887L102.038 49.2322C101.926 49.6418 101.898 50.0697 101.955 50.4903C102.037 50.7699 102.009 51.07 101.878 51.3301C101.82 51.3738 101.748 51.3945 101.676 51.3882C100.584 50.1188 99.77 48.6348 99.2863 47.0319C98.8026 45.429 98.6598 43.7426 98.8671 42.0811C99.3122 42.1221 100.17 42.262 100.216 42.7327C100.167 43.3367 100.175 43.944 100.241 44.5464C100.349 45.4892 101.026 46.0693 101.569 46.5352C102.092 46.9834 102.414 47.2797 102.445 47.7018C102.437 47.9793 102.373 48.2524 102.258 48.505ZM109.354 54.4759C110.082 54.6145 110.731 55.0228 111.172 55.6192C111.066 55.6221 110.96 55.6278 110.854 55.6278C109.466 55.6286 108.089 55.3891 106.783 54.9199C107.577 54.5192 108.472 54.3645 109.354 54.4759Z" fill="#FE6152"/>
<path d="M130.845 63.0309L127.335 50.7299L128.299 49.4455C128.798 48.7665 129.277 48.0717 129.685 47.4369C129.97 46.9954 130.077 46.4623 129.985 45.9448C129.893 45.4273 129.608 44.9639 129.188 44.6478L129.155 44.6217C128.721 44.2909 128.179 44.1371 127.636 44.1913C127.094 44.2456 126.592 44.5038 126.233 44.9138C125.736 45.4837 125.204 46.1356 124.69 46.805L123.724 48.0901L110.73 48.4C110.556 48.4045 110.387 48.4577 110.242 48.5537C110.097 48.6497 109.982 48.7846 109.91 48.9429L109.346 50.1943C109.294 50.3136 109.268 50.4424 109.269 50.5724C109.27 50.7024 109.298 50.8307 109.352 50.949C109.406 51.0673 109.484 51.173 109.582 51.2591C109.679 51.3452 109.794 51.4099 109.918 51.4489L119.282 54.3001L115.971 58.553L112.677 58.2485C112.549 58.2364 112.419 58.2513 112.297 58.2921C112.174 58.3329 112.062 58.3988 111.966 58.4856L110.545 59.7805C110.431 59.8881 110.346 60.0229 110.298 60.1723C110.25 60.3217 110.241 60.4808 110.271 60.6347C110.302 60.7886 110.371 60.9322 110.472 61.0521C110.573 61.172 110.703 61.2643 110.85 61.3202L114.078 62.501C113.883 62.9384 113.627 63.5299 113.437 64.0372C113.369 64.2192 113.361 64.4183 113.413 64.6055C113.466 64.7926 113.577 64.9581 113.73 65.0779C113.884 65.1998 114.073 65.2694 114.27 65.2764C114.466 65.2834 114.66 65.2276 114.822 65.117L116.316 64.1075L118.278 66.705C118.375 66.8282 118.502 66.9251 118.646 66.9868C118.79 67.0485 118.947 67.073 119.103 67.0582C119.259 67.0433 119.409 66.9895 119.539 66.9017C119.669 66.8139 119.774 66.6949 119.846 66.5556L120.684 64.8459C120.742 64.7286 120.773 64.6004 120.777 64.4698C120.781 64.3393 120.757 64.2095 120.706 64.089L119.448 61.092L122.615 56.7186L128.146 64.7022C128.221 64.8074 128.316 64.8961 128.427 64.9625C128.538 65.029 128.661 65.0719 128.789 65.0884C128.917 65.1049 129.047 65.0948 129.17 65.0587C129.294 65.0225 129.409 64.9611 129.508 64.8783L130.559 63.9803C130.693 63.866 130.791 63.7158 130.841 63.5475C130.892 63.3792 130.893 63.1999 130.845 63.0309ZM128.973 63.6631L123.149 55.2568C123.09 55.1748 123.013 55.1079 122.923 55.0614C122.834 55.0148 122.734 54.9901 122.633 54.989C122.532 54.9879 122.433 55.0107 122.342 55.0553C122.251 55.1 122.173 55.1653 122.112 55.246L118.208 60.6371C118.144 60.7255 118.104 60.8289 118.092 60.9373C118.079 61.0456 118.095 61.1554 118.137 61.256L119.471 64.432L118.953 65.4889L116.967 62.8596C116.868 62.7315 116.723 62.6456 116.563 62.6191C116.403 62.5925 116.239 62.6272 116.104 62.7162L115.064 63.4193C115.302 62.8704 115.514 62.4187 115.518 62.4111C115.554 62.331 115.574 62.2444 115.575 62.1565C115.577 62.0686 115.561 61.9813 115.527 61.9C115.494 61.8187 115.444 61.7451 115.381 61.6838C115.318 61.6224 115.243 61.5746 115.161 61.5433L111.835 60.3263L112.71 59.5285L116.2 59.8524C116.306 59.8618 116.413 59.8446 116.511 59.8023C116.609 59.7599 116.694 59.6937 116.76 59.6098L120.853 54.3554C120.914 54.2731 120.954 54.1777 120.97 54.0769C120.987 53.9761 120.98 53.8729 120.949 53.7755C120.918 53.6782 120.865 53.5895 120.793 53.5166C120.721 53.4438 120.634 53.3889 120.537 53.3564L110.671 50.3523L110.978 49.6692L124.063 49.3571C124.159 49.3547 124.253 49.3306 124.339 49.2866C124.424 49.2425 124.498 49.1797 124.556 49.1028C124.556 49.1028 126.711 46.3025 127.191 45.7526C127.338 45.5858 127.542 45.4807 127.762 45.4585C127.983 45.4363 128.204 45.4987 128.381 45.6331L128.414 45.6592C128.58 45.7824 128.692 45.9637 128.73 46.1665C128.767 46.3694 128.726 46.5788 128.615 46.7526C128.222 47.3651 126.128 50.2214 126.128 50.2214C126.069 50.2998 126.029 50.3909 126.011 50.4874C125.994 50.5839 125.998 50.6832 126.025 50.7776L129.559 63.1609L128.973 63.6631Z" fill="#FE6152"/>
</g>
</g>
</g>
</g>
<path d="M100.554 0C128.468 0 151.098 22.6281 151.098 50.5409C151.098 78.4537 128.468 101.082 100.554 101.082C83.463 101.082 68.3537 92.6002 59.2058 79.6166H61.8189C70.6556 91.3686 84.7168 98.969 100.554 98.969C127.302 98.969 148.985 77.2871 148.985 50.5409C148.985 23.7947 127.302 2.11282 100.554 2.11282C84.7172 2.11282 70.656 9.71317 61.8189 21.4652H59.2058C68.3537 8.48155 83.463 0 100.554 0Z" fill="white"/>
</g>
</g>
</g>
</g>
<defs>
<clipPath id="clip0_318_804">
<rect width="162" height="101" fill="white"/>
</clipPath>
<clipPath id="clip1_318_804">
<rect width="162" height="101" fill="white" transform="translate(-0.0981445 0.0410156)"/>
</clipPath>
<clipPath id="clip2_318_804">
<rect width="161.742" height="101.082" fill="white" transform="translate(0.0308838)"/>
</clipPath>
<clipPath id="clip3_318_804">
<rect width="161.742" height="101.082" fill="white" transform="translate(0.0308838)"/>
</clipPath>
<clipPath id="clip4_318_804">
<rect width="99.9566" height="47.09" fill="white" transform="translate(30.9236 26.9961)"/>
</clipPath>
<clipPath id="clip5_318_804">
<rect width="99.9566" height="47.09" fill="white" transform="translate(30.9236 26.9961)"/>
</clipPath>
<clipPath id="clip6_318_804">
<rect width="32.9187" height="46.8558" fill="white" transform="translate(30.9236 27.1133)"/>
</clipPath>
<clipPath id="clip7_318_804">
<rect width="32.9187" height="46.8558" fill="white" transform="translate(30.9236 27.1133)"/>
</clipPath>
<clipPath id="clip8_318_804">
<rect width="32.9187" height="46.8558" fill="white" transform="translate(30.9236 27.1133)"/>
</clipPath>
<clipPath id="clip9_318_804">
<rect width="32.9187" height="46.8558" fill="white" transform="translate(30.9236 27.1133)"/>
</clipPath>
<clipPath id="clip10_318_804">
<rect width="40.6875" height="40.6825" fill="white" transform="translate(90.1926 30.1997)"/>
</clipPath>
<clipPath id="clip11_318_804">
<rect width="40.6875" height="40.6825" fill="white" transform="translate(90.1926 30.1997)"/>
</clipPath>
</defs>
</svg>
