<svg width="32" height="32" viewBox="0 0 32 32" fill="none" xmlns="http://www.w3.org/2000/svg">
<path d="M19.6028 27.8163L19.6174 27.8265C20.8767 28.6283 22.3718 28.9765 23.8558 28.8135C25.3397 28.6505 26.7237 27.9862 27.7789 26.9302L28.6956 26.0135C28.8988 25.8104 29.0599 25.5694 29.1699 25.3041C29.2798 25.0387 29.3364 24.7544 29.3364 24.4672C29.3364 24.18 29.2798 23.8956 29.1699 23.6302C29.0599 23.3649 28.8988 23.1239 28.6956 22.9208L24.8291 19.0573C24.6261 18.8541 24.385 18.693 24.1197 18.583C23.8544 18.4731 23.57 18.4165 23.2828 18.4165C22.9956 18.4165 22.7112 18.4731 22.4459 18.583C22.1806 18.693 21.9395 18.8541 21.7365 19.0573C21.3265 19.4671 20.7706 19.6973 20.1909 19.6973C19.6112 19.6973 19.0553 19.4671 18.6453 19.0573L12.463 12.8735C12.0532 12.4635 11.8229 11.9076 11.8229 11.3279C11.8229 10.7482 12.0532 10.1923 12.463 9.78231C12.6662 9.57929 12.8273 9.33823 12.9373 9.07291C13.0472 8.80759 13.1038 8.5232 13.1038 8.236C13.1038 7.9488 13.0472 7.66441 12.9373 7.39909C12.8273 7.13376 12.6662 6.89271 12.463 6.68969L8.59796 2.8261C8.188 2.41627 7.63206 2.18604 7.05238 2.18604C6.4727 2.18604 5.91676 2.41627 5.5068 2.8261L4.58863 3.74281C3.53287 4.79823 2.86877 6.18226 2.70607 7.6662C2.54337 9.15014 2.8918 10.6452 3.69378 11.9043L3.70253 11.9189C7.93802 18.1854 13.3355 23.5819 19.6028 27.8163V27.8163Z" stroke="#FE6152" stroke-width="2" stroke-linecap="round" stroke-linejoin="round"/>
</svg>
