<svg width="42" height="42" viewBox="0 0 42 42" fill="none" xmlns="http://www.w3.org/2000/svg">
<g clip-path="url(#clip0_54_293)">
<mask id="mask0_54_293" style="mask-type:luminance" maskUnits="userSpaceOnUse" x="0" y="0" width="42" height="42">
<path d="M0 0.000125885H41.9999V42H0V0.000125885Z" fill="white"/>
</mask>
<g mask="url(#mask0_54_293)">
<path d="M9.54013 21.1615C9.47376 20.777 9.50601 20.3819 9.63384 20.0132C9.76168 19.6446 9.98094 19.3143 10.2711 19.0534L23.5511 7.11383C23.945 6.74146 24.2553 6.2897 24.4616 5.78844C24.6678 5.28717 24.7653 4.74782 24.7475 4.20608L24.6999 2.75388C24.6771 2.05736 24.1178 1.49799 23.4212 1.47518L21.9691 1.42761C21.4273 1.40984 20.888 1.5073 20.3867 1.71354C19.8854 1.91977 19.4336 2.23008 19.0612 2.62394L7.12169 15.9039C6.8608 16.1941 6.53056 16.4134 6.16188 16.5413C5.7932 16.6691 5.39811 16.7014 5.01357 16.635L3.00636 16.2886L0.820312 18.4746L5.78754 20.3875L7.70042 25.3547L9.88654 23.1688L9.54013 21.1615Z" stroke="#FE6152" stroke-width="2" stroke-miterlimit="10" stroke-linecap="round" stroke-linejoin="round"/>
<path d="M12.3114 10.1328L3.53979 4.03274L5.53422 2.03849L16.1412 5.87368L12.3114 10.1328Z" stroke="#FE6152" stroke-width="2" stroke-miterlimit="10" stroke-linecap="round" stroke-linejoin="round"/>
<path d="M23.8267 20.3312L21.8324 22.3256L16.0664 13.8422L20.3013 10.0369L23.8267 20.3312Z" stroke="#FE6152" stroke-width="2" stroke-miterlimit="10" stroke-linecap="round" stroke-linejoin="round"/>
<path d="M40.7777 20.1357C39.1069 12.631 32.4103 7.02062 24.4027 7.02062C24.1435 7.02062 23.885 7.02636 23.6283 7.03867C23.6029 7.0641 23.5774 7.08953 23.5512 7.11414L10.2714 19.0532C9.98128 19.3141 9.76205 19.6443 9.6342 20.0129C9.50635 20.3815 9.47406 20.7765 9.54034 21.161L9.88668 23.169L7.70039 25.3546L7.69629 25.3439C8.47632 33.8841 15.6581 40.5746 24.4027 40.5746C32.4617 40.5746 39.1928 34.8913 40.8093 27.3144" stroke="#FE6152" stroke-width="2" stroke-miterlimit="10" stroke-linecap="round" stroke-linejoin="round"/>
<path d="M40.7775 20.1358C40.0616 16.9197 38.4241 14.0514 36.1544 11.8244H31.641C30.61 11.8244 29.774 12.6604 29.774 13.6922V14.6815C29.774 15.7127 30.61 16.5486 31.641 16.5486C31.951 16.5482 32.258 16.609 32.5444 16.7277C32.8307 16.8464 33.0908 17.0205 33.3096 17.2401C33.5292 17.4588 33.7034 17.7189 33.8221 18.0053C33.9408 18.2916 34.0016 18.5987 34.0011 18.9087V22.0463C34.0012 23.1674 33.5559 24.2426 32.7633 25.0355L28.1366 29.662C27.925 29.8736 27.7571 30.1247 27.6425 30.4012C27.528 30.6776 27.469 30.9739 27.469 31.2732V33.7414C27.469 34.346 27.7093 34.9252 28.1366 35.3525L31.6943 38.911C36.2899 36.6902 39.7175 32.4349 40.8098 27.3145" stroke="#FE6152" stroke-width="2" stroke-miterlimit="10" stroke-linecap="round" stroke-linejoin="round"/>
<path d="M22.3067 30.7178L19.5135 33.5101C19.3954 33.6282 19.3017 33.7683 19.2378 33.9226C19.1739 34.0769 19.1411 34.2422 19.1411 34.4092V39.7322C14.8116 38.3048 11.262 35.1606 9.29736 31.1066L11.7083 28.6965C11.8262 28.5784 11.9662 28.4847 12.1203 28.4208C12.2744 28.3569 12.4396 28.324 12.6065 28.3241H17.0534C17.3905 28.3241 17.7137 28.1904 17.9525 27.9517L18.7466 27.1576C19.2428 26.6614 20.0475 26.6614 20.5438 27.1576L22.3067 28.9205C22.803 29.4168 22.803 30.2215 22.3067 30.7178Z" stroke="#FE6152" stroke-width="2" stroke-miterlimit="10" stroke-linecap="round" stroke-linejoin="round"/>
</g>
</g>
<defs>
<clipPath id="clip0_54_293">
<rect width="42" height="42" fill="white"/>
</clipPath>
</defs>
</svg>
