<svg width="52" height="52" viewBox="0 0 52 52" fill="none" xmlns="http://www.w3.org/2000/svg">
<g clip-path="url(#clip0_305_942)">
<path d="M25.9093 6.60766C26.4742 6.60766 26.9322 6.14971 26.9322 5.58482V1.02284C26.9322 0.457945 26.4742 0 25.9093 0C25.3444 0 24.8865 0.457945 24.8865 1.02284V5.58482C24.8866 6.14971 25.3445 6.60766 25.9093 6.60766ZM50.9113 35.1391L49.1044 33.3373C48.4616 32.6953 47.6049 32.3417 46.6921 32.3417C46.1084 32.3417 45.5481 32.4869 45.0515 32.759L41.6465 29.3581L41.8124 29.1924C43.1937 27.8083 43.1932 25.5592 41.8123 24.1798C41.3262 23.691 40.7069 23.3562 40.0318 23.217C40.1255 22.8936 40.173 22.5586 40.1729 22.2219C40.1729 21.2718 39.8038 20.3809 39.1357 19.7155C38.6496 19.2268 38.0303 18.8919 37.3552 18.7527C37.4489 18.4293 37.4964 18.0943 37.4963 17.7576C37.4963 16.8074 37.1272 15.9166 36.458 15.2502C35.9714 14.7634 35.353 14.4296 34.679 14.2899C35.028 13.0867 34.7298 11.733 33.7833 10.7848C32.9953 10.0002 31.9262 9.66306 30.8958 9.77234L24.1485 8.4952C23.1195 8.29999 21.8344 8.17091 21.0233 8.91079C20.9721 8.95751 20.9199 9.01123 20.8685 9.07105C19.6107 8.6126 18.1438 8.8856 17.1366 9.89168C16.4684 10.559 16.1003 11.4495 16.1003 12.3992C16.1003 12.7412 16.1488 13.0753 16.2411 13.3944C15.5672 13.5333 14.9491 13.8674 14.4637 14.355C13.7942 15.0218 13.4251 15.9113 13.4243 16.8598C13.4239 17.1974 13.4715 17.5334 13.5655 17.8577C12.8911 17.9964 12.2723 18.3301 11.7859 18.8175C11.1164 19.4863 10.7478 20.3773 10.7478 21.3264C10.7478 22.0534 10.9648 22.7459 11.367 23.3309C10.8537 23.505 10.3875 23.7951 10.0045 24.1787C8.62227 25.5592 8.62177 27.8084 10.0055 29.1945L10.1707 29.3591L6.7653 32.7583C5.49973 32.1624 3.94044 32.3856 2.89608 33.4287L1.08806 35.2316C0.444969 35.8739 0.0909219 36.7307 0.0908203 37.644C0.0908203 38.5575 0.444969 39.4144 1.08806 40.0568L3.34448 42.3104C3.74412 42.7097 4.39179 42.7093 4.79093 42.3096C5.19017 41.91 5.18977 41.2623 4.79012 40.8632L2.5337 38.6095C2.27756 38.3537 2.13649 38.0108 2.13649 37.6441C2.13649 37.2776 2.27756 36.9348 2.53309 36.6796L4.34121 34.8766C4.79296 34.4253 5.4844 34.3581 6.00948 34.672C6.11401 34.8295 6.26034 34.9548 6.43208 35.0339L16.8009 45.3875C16.8511 45.4978 16.9206 45.5983 17.0061 45.6842C17.0896 45.7676 17.1871 45.8358 17.294 45.8857C17.5144 46.1345 17.6356 46.4557 17.6344 46.7881C17.6344 47.1548 17.4934 47.4975 17.2372 47.7534L15.4309 49.5575C14.8972 50.0889 14.0291 50.0888 13.497 49.5592L11.2406 47.3025C10.8411 46.9031 10.1935 46.9031 9.7941 47.3025C9.39466 47.702 9.39466 48.3495 9.7941 48.749L12.0521 51.0072C12.7168 51.6691 13.5896 51.9999 14.4628 51.9999C15.3363 51.9999 16.2101 51.6686 16.8755 51.0061L18.683 49.2008C19.326 48.5585 19.6802 47.7017 19.6802 46.7881C19.6802 46.1362 19.4989 45.5136 19.1618 44.9767L22.9944 41.1489L23.0067 41.1364C23.4455 40.6827 24.6676 40.7676 25.8495 40.8497C26.6892 40.9081 27.6254 40.973 28.5401 40.8675L32.7371 45.0595C32.4652 45.5552 32.32 46.1149 32.32 46.6976C32.32 47.6102 32.6742 48.4664 33.3173 49.1088L35.1248 50.9141C35.7675 51.5561 36.6242 51.9097 37.537 51.9097C38.4498 51.9097 39.3064 51.5562 39.9492 50.9141L50.912 39.9646C51.5551 39.3224 51.9092 38.4656 51.9092 37.5521C51.9091 36.6388 51.555 35.782 50.9113 35.1391ZM23.7677 10.5051L28.2046 11.3449L25.5489 13.9997C25.1381 13.8022 24.575 13.434 23.9573 12.8431C23.1118 12.0342 22.507 11.1004 22.4519 10.5179L22.4518 10.517L22.4517 10.5167C22.4483 10.4832 22.4469 10.4496 22.4473 10.4159C22.581 10.3834 22.9363 10.3474 23.7677 10.5051ZM18.5821 11.339C19.1003 10.8214 19.9053 10.7617 20.4908 11.1582C20.8226 12.5494 22.0093 13.8103 22.5432 14.3211C22.9389 14.6997 24.2086 15.8349 25.4901 16.1469C25.6653 16.3984 25.7588 16.6978 25.7578 17.0043C25.7578 17.407 25.6029 17.7835 25.3207 18.0654C25.0392 18.3474 24.6621 18.5026 24.2587 18.5026C23.8552 18.5026 23.4781 18.3474 23.1954 18.0641L23.1953 18.064L23.1948 18.0635L18.582 13.4591C18.3008 13.1782 18.1459 12.8018 18.1459 12.3992C18.146 11.9965 18.3009 11.62 18.5821 11.339ZM15.9094 15.8024C16.1908 15.5206 16.5675 15.3653 16.9703 15.3653C17.3736 15.3653 17.7515 15.5209 18.0348 15.8038L21.7491 19.5108C22.334 20.0966 22.334 21.0498 21.7512 21.6336C21.4682 21.9155 21.0898 22.0706 20.6857 22.0706C20.2815 22.0706 19.9031 21.9155 19.6214 21.6348L19.6213 21.6347L16.8034 18.8175C16.7991 18.8131 16.7943 18.8091 16.7898 18.8046L15.9083 17.9234C15.6254 17.6409 15.4697 17.2637 15.47 16.8613C15.4704 16.4602 15.6256 16.085 15.9094 15.8024ZM13.2316 20.2649C13.5132 19.9836 13.8907 19.8288 14.2947 19.8288C14.6954 19.8288 15.0697 19.9814 15.3501 20.2578L18.1766 23.0829C18.4584 23.3636 18.6137 23.7397 18.6137 24.1419C18.6137 24.544 18.4584 24.9201 18.1754 25.2019C17.8939 25.483 17.5168 25.6379 17.1135 25.6379C16.7096 25.6379 16.3313 25.4826 16.0493 25.2019L15.0247 24.1785L15.024 24.1778L13.2317 22.3876C12.9491 22.1054 12.7935 21.7284 12.7935 21.3262C12.7935 20.9241 12.9491 20.547 13.2316 20.2649ZM11.4502 25.6259C11.733 25.3434 12.111 25.1878 12.5146 25.1878C12.918 25.1878 13.2959 25.3433 13.5786 25.6256L14.6047 26.6505C14.8866 26.9312 15.0418 27.3073 15.0418 27.7095C15.0418 28.1117 14.8865 28.4877 14.6026 28.7706C14.3211 29.0525 13.944 29.2078 13.5406 29.2078C13.1371 29.2078 12.76 29.0526 12.4766 28.7686L12.3481 28.6406C12.3464 28.6389 12.345 28.6371 12.3434 28.6354L12.3375 28.6302L11.4512 27.7473C10.8663 27.1612 10.8658 26.2096 11.4502 25.6259ZM32.2943 37.2506C31.895 36.8508 31.2473 36.8505 30.8478 37.2497L29.9378 38.1586C29.0731 39.0233 27.5063 38.9144 25.9911 38.8093C24.3457 38.6949 22.6442 38.5769 21.5432 39.7073L17.7757 43.4702L8.35445 34.0627L11.6885 30.7346C12.2396 31.0724 12.8755 31.2535 13.5408 31.2535C14.4914 31.2535 15.3827 30.8851 16.0484 30.2181C16.7186 29.5506 17.0878 28.6598 17.0878 27.7096C17.0878 27.7008 17.0872 27.692 17.0872 27.6832C17.096 27.6833 17.1049 27.6838 17.1137 27.6838C18.0629 27.6838 18.9535 27.3165 19.6202 26.6506C20.2904 25.9831 20.6596 25.0922 20.6596 24.1421C20.6596 24.1333 20.659 24.1245 20.659 24.1157C20.6679 24.1157 20.6768 24.1163 20.6859 24.1163C21.6348 24.1163 22.5259 23.7494 23.197 23.081C23.8937 22.3832 24.2383 21.4644 24.2317 20.5476C24.2409 20.5477 24.25 20.5482 24.2591 20.5482C25.2097 20.5481 26.1009 20.1798 26.7676 19.5118C27.4358 18.8444 27.8039 17.9539 27.8039 17.0043C27.8039 16.3402 27.6233 15.7053 27.2866 15.1554L30.2089 12.2343C30.4188 12.0251 30.6859 11.8828 30.9766 11.8252C31.0071 11.822 31.0371 11.8171 31.0669 11.8112C31.5184 11.749 31.9926 11.8883 32.3379 12.2322C32.9228 12.8181 32.9228 13.7714 32.3401 14.3551L31.4501 15.2415C31.4471 15.2444 31.444 15.2471 31.441 15.25L30.416 16.2734C30.0162 16.6725 30.0158 17.3202 30.415 17.7198C30.8144 18.1196 31.462 18.1199 31.8615 17.7207L32.755 16.8284L32.7557 16.8278L32.8907 16.6932C33.4773 16.1121 34.4275 16.1133 35.0134 16.6984C35.2953 16.9791 35.4506 17.3552 35.4506 17.7574C35.4506 18.1595 35.2953 18.5356 35.0112 18.8185L34.1161 19.7154L34.1158 19.7158L33.0908 20.7366C32.6905 21.1353 32.6892 21.7829 33.0879 22.1831C33.4865 22.5833 34.1341 22.5846 34.5343 22.186L35.564 21.1605C35.8454 20.8786 36.2225 20.7234 36.6259 20.7234C37.0294 20.7234 37.4066 20.8786 37.6901 21.1626C37.972 21.4434 38.1272 21.8195 38.1272 22.2217C38.1272 22.6238 37.972 22.9998 37.6884 23.2822L35.904 25.0674C35.5046 25.4669 35.5047 26.1145 35.9042 26.5138C35.9991 26.6089 36.1118 26.6843 36.2359 26.7357C36.36 26.787 36.493 26.8134 36.6273 26.8132C36.8891 26.8132 37.151 26.7133 37.3506 26.5135L38.2252 25.6386C38.2302 25.6339 38.2356 25.6297 38.2405 25.6247C38.522 25.3428 38.8991 25.1876 39.3025 25.1876C39.706 25.1876 40.0831 25.3428 40.3655 25.6257C40.9498 26.2094 40.9493 27.1611 40.3655 27.7459L39.4763 28.634L39.4753 28.6349L39.4744 28.636L38.0631 30.0455C37.6635 30.4448 37.6631 31.0924 38.0622 31.4921C38.1571 31.5873 38.2699 31.6629 38.3941 31.7144C38.5183 31.7659 38.6515 31.7923 38.7859 31.7921C39.0474 31.7921 39.3091 31.6924 39.5087 31.493L40.1991 30.8035L43.5077 34.1082L34.0872 43.5172L30.7119 40.1459C30.9546 39.9903 31.1798 39.8091 31.3837 39.6053L32.2932 38.6969C32.6931 38.2979 32.6935 37.6502 32.2943 37.2506ZM49.4662 38.5173L38.5035 49.4667C38.247 49.7229 37.9038 49.8639 37.5369 49.8639C37.1701 49.8639 36.8268 49.7229 36.5702 49.4666L34.7627 47.6614C34.5066 47.4056 34.3655 47.0634 34.3655 46.6976C34.3655 46.332 34.5066 45.9897 34.7627 45.7339L45.7255 34.7844C45.982 34.5282 46.3252 34.3871 46.6922 34.3871C47.059 34.3871 47.4023 34.5282 47.6594 34.7851L49.4663 36.5869C49.7225 36.8427 49.8635 37.1854 49.8635 37.552C49.8634 37.9188 49.7224 38.2615 49.4662 38.5173ZM12.3275 5.74539C12.4223 5.84028 12.535 5.91552 12.659 5.9668C12.7829 6.01807 12.9158 6.04437 13.05 6.04419C13.312 6.04419 13.5742 5.94405 13.7739 5.74387C14.173 5.34402 14.1724 4.69645 13.7725 4.29741L10.0454 0.577688C9.64562 0.178648 8.99795 0.179156 8.59891 0.579109C8.19987 0.978961 8.20048 1.62652 8.60034 2.02556L12.3275 5.74539ZM38.7687 6.04419C39.0302 6.04419 39.2918 5.94445 39.4915 5.74509L43.2158 2.02526C43.6154 1.62612 43.6158 0.978453 43.2166 0.578805C42.8174 0.179156 42.1699 0.17875 41.7701 0.577992L38.0458 4.29782C37.6462 4.69696 37.6458 5.34462 38.045 5.74427C38.1399 5.8395 38.2527 5.91502 38.3769 5.9665C38.5011 6.01797 38.6342 6.04437 38.7687 6.04419Z" fill="#FE6152"/>
<path d="M6.3801 43.9973C5.9841 44.4001 5.98959 45.0477 6.39249 45.4437L6.39543 45.4466C6.58588 45.6344 6.84272 45.7396 7.11023 45.7393C7.375 45.7393 7.63978 45.6368 7.84036 45.4328C8.23635 45.03 8.22935 44.3809 7.82655 43.9849C7.42385 43.5889 6.77629 43.5945 6.3801 43.9973ZM34.796 35.7771C34.9516 35.7771 35.1094 35.7417 35.2576 35.667C35.7619 35.4126 35.9645 34.7975 35.7102 34.2932C35.4558 33.7888 34.8407 33.5861 34.3364 33.8405L34.3307 33.8434C33.8263 34.0978 33.6266 34.7114 33.8809 35.2158C34.0604 35.5721 34.4216 35.7771 34.796 35.7771Z" fill="#FE6152"/>
</g>
<defs>
<clipPath id="clip0_305_942">
<rect width="52" height="52" fill="white"/>
</clipPath>
</defs>
</svg>
