<svg width="58" height="58" viewBox="0 0 58 58" fill="none" xmlns="http://www.w3.org/2000/svg">
<g clip-path="url(#clip0_21_4996)">
<path d="M50.1619 26.7909C51.8603 25.5973 52.985 23.612 52.985 21.3742C52.985 17.7133 50.0241 14.7525 46.3633 14.7525C42.7024 14.7525 39.7416 17.7133 39.7416 21.3742C39.7416 23.612 40.8548 25.5973 42.5647 26.7909C41.1072 27.2958 39.776 28.0762 38.6514 29.0861C37.1021 27.7663 35.2774 26.7564 33.2806 26.1597C35.702 24.6907 37.3316 22.0168 37.3316 18.9757C37.3316 14.3393 33.5789 10.5867 28.9426 10.5867C24.3063 10.5867 20.5536 14.3508 20.5536 18.9757C20.5536 22.0168 22.1717 24.6907 24.6047 26.1597C22.6308 26.7564 20.829 27.7548 19.2913 29.0516C18.1666 28.0647 16.8583 27.2958 15.4238 26.8023C17.1223 25.6088 18.2469 23.6235 18.2469 21.3856C18.2469 17.7248 15.2861 14.764 11.6252 14.764C7.96439 14.764 5.00356 17.7248 5.00356 21.3856C5.00356 23.6235 6.11674 25.6088 7.82667 26.8023C3.27068 28.3746 0 32.701 0 37.7849V38.5423C0 38.5653 0.0229521 38.5882 0.0459042 38.5882H14.0811C14.0008 39.2194 13.9549 39.8736 13.9549 40.5277V41.3081C13.9549 44.682 16.6862 47.4133 20.0602 47.4133H37.848C41.222 47.4133 43.9533 44.682 43.9533 41.3081V40.5277C43.9533 39.8736 43.9074 39.2194 43.8271 38.5882H57.9541C57.977 38.5882 58 38.5653 58 38.5423V37.7849C57.977 32.6896 54.7178 28.3631 50.1619 26.7909ZM41.5778 21.3627C41.5778 18.7232 43.7238 16.5772 46.3633 16.5772C49.0028 16.5772 51.1488 18.7232 51.1488 21.3627C51.1488 23.9677 49.0487 26.0908 46.4551 26.1482H46.2715C43.6664 26.1023 41.5778 23.9792 41.5778 21.3627ZM22.3668 18.9757C22.3668 15.3607 25.3047 12.4228 28.9197 12.4228C32.5346 12.4228 35.4725 15.3607 35.4725 18.9757C35.4725 22.4644 32.7297 25.3219 29.2984 25.517H28.541C25.1096 25.3219 22.3668 22.4644 22.3668 18.9757ZM6.8053 21.3627C6.8053 18.7232 8.95133 16.5772 11.5908 16.5772C14.2303 16.5772 16.3763 18.7232 16.3763 21.3627C16.3763 23.9677 14.2762 26.0908 11.6826 26.1482H11.499C8.90542 26.1023 6.8053 23.9792 6.8053 21.3627ZM14.4025 36.7406H1.85912C2.37554 31.8518 6.50693 28.0188 11.522 27.9844H11.6597C14.0467 27.9958 16.2271 28.8795 17.9141 30.314C16.2616 32.1043 15.0336 34.3077 14.4025 36.7406ZM42.0942 41.3081C42.0942 43.6607 40.1777 45.5772 37.8251 45.5772H20.0372C17.6846 45.5772 15.7681 43.6607 15.7681 41.3081V40.5277C15.7681 33.4011 21.4602 27.5712 28.541 27.3647C28.6672 27.3761 28.8049 27.3761 28.9311 27.3761C29.0574 27.3761 29.1951 27.3761 29.3213 27.3647C36.4021 27.5712 42.0942 33.4011 42.0942 40.5277V41.3081ZM43.4598 36.7406C42.8287 34.3192 41.6237 32.1502 39.9826 30.3599C41.681 28.891 43.8844 28.0073 46.2944 27.9844H46.4321C51.4472 28.0188 55.5785 31.8518 56.095 36.7406H43.4598Z" fill="#FE6152"/>
</g>
<defs>
<clipPath id="clip0_21_4996">
<rect width="58" height="58" fill="white"/>
</clipPath>
</defs>
</svg>
