<svg width="52" height="52" viewBox="0 0 52 52" fill="none" xmlns="http://www.w3.org/2000/svg">
<g clip-path="url(#clip0_21_4999)">
<mask id="mask0_21_4999" style="mask-type:luminance" maskUnits="userSpaceOnUse" x="0" y="0" width="52" height="52">
<path d="M0 0.000156403H51.9998V52H0V0.000156403Z" fill="white"/>
</mask>
<g mask="url(#mask0_21_4999)">
<path d="M11.8116 26.1999C11.7294 25.7239 11.7693 25.2347 11.9276 24.7783C12.0859 24.3218 12.3574 23.913 12.7166 23.59L29.1585 8.80762C29.6462 8.3466 30.0304 7.78728 30.2858 7.16666C30.5411 6.54605 30.6618 5.87828 30.6398 5.20755L30.5809 3.40959C30.5526 2.54723 29.8601 1.85467 28.9977 1.82644L27.1998 1.76754C26.529 1.74554 25.8613 1.8662 25.2406 2.12154C24.62 2.37688 24.0607 2.76108 23.5996 3.24872L8.81733 19.6906C8.49432 20.0499 8.08546 20.3214 7.629 20.4797C7.17253 20.638 6.68338 20.6779 6.20728 20.5957L3.72216 20.1668L1.01562 22.8734L7.16552 25.2417L9.53385 31.3916L12.2405 28.6852L11.8116 26.1999Z" stroke="#FE6152" stroke-width="2" stroke-miterlimit="10" stroke-linecap="round" stroke-linejoin="round"/>
<path d="M15.2426 12.5453L4.38257 4.99282L6.85185 2.52374L19.9842 7.27208L15.2426 12.5453Z" stroke="#FE6152" stroke-width="2" stroke-miterlimit="10" stroke-linecap="round" stroke-linejoin="round"/>
<path d="M29.4998 25.1719L27.0307 27.6411L19.8918 17.138L25.135 12.4266L29.4998 25.1719Z" stroke="#FE6152" stroke-width="2" stroke-miterlimit="10" stroke-linecap="round" stroke-linejoin="round"/>
<path d="M50.4865 24.9298C48.4178 15.6383 40.1268 8.69211 30.2127 8.69211C29.8918 8.69211 29.5718 8.69922 29.2539 8.71445C29.2225 8.74594 29.1909 8.77742 29.1584 8.80789L12.7168 23.5896C12.3576 23.9126 12.0862 24.3214 11.9279 24.7778C11.7696 25.2342 11.7296 25.7233 11.8117 26.1993L12.2405 28.6853L9.53364 31.3913L9.52856 31.3781C10.4943 41.9517 19.3861 50.2351 30.2127 50.2351C40.1905 50.2351 48.5243 43.1987 50.5256 33.8178" stroke="#FE6152" stroke-width="2" stroke-miterlimit="10" stroke-linecap="round" stroke-linejoin="round"/>
<path d="M50.4865 24.9299C49.6001 20.9481 47.5727 17.3969 44.7627 14.6396H39.1746C37.8981 14.6396 36.8631 15.6746 36.8631 16.9522V18.177C36.8631 19.4537 37.8981 20.4886 39.1746 20.4886C39.5584 20.4881 39.9385 20.5634 40.2931 20.7103C40.6476 20.8573 40.9696 21.0729 41.2405 21.3447C41.5124 21.6156 41.7281 21.9375 41.875 22.2921C42.022 22.6467 42.0973 23.0268 42.0967 23.4106V27.2953C42.0967 28.6834 41.5454 30.0146 40.5641 30.9962L34.8359 36.7243C34.5738 36.9862 34.366 37.2972 34.2241 37.6394C34.0823 37.9817 34.0093 38.3486 34.0093 38.7191V41.775C34.0093 42.5235 34.3068 43.2406 34.8359 43.7696L39.2406 48.1754C44.9304 45.4258 49.1741 40.1574 50.5264 33.8179" stroke="#FE6152" stroke-width="2" stroke-miterlimit="10" stroke-linecap="round" stroke-linejoin="round"/>
<path d="M27.6177 38.0313L24.1595 41.4885C24.0133 41.6347 23.8974 41.8082 23.8182 41.9992C23.7391 42.1902 23.6984 42.3949 23.6984 42.6016V49.192C18.3381 47.4248 13.9434 43.532 11.511 38.5128L14.496 35.5289C14.6419 35.3826 14.8152 35.2666 15.006 35.1874C15.1969 35.1083 15.4014 35.0676 15.608 35.0678H21.1137C21.5311 35.0678 21.9313 34.9022 22.2268 34.6067L23.21 33.6235C23.8244 33.0091 24.8207 33.0091 25.4352 33.6235L27.6177 35.8061C28.2323 36.4206 28.2323 37.4169 27.6177 38.0313Z" stroke="#FE6152" stroke-width="2" stroke-miterlimit="10" stroke-linecap="round" stroke-linejoin="round"/>
</g>
</g>
<defs>
<clipPath id="clip0_21_4999">
<rect width="52" height="52" fill="white"/>
</clipPath>
</defs>
</svg>
