<svg width="84" height="67" viewBox="0 0 84 67" fill="none" xmlns="http://www.w3.org/2000/svg">
<g clip-path="url(#clip0_44_994)">
<g clip-path="url(#clip1_44_994)">
<g clip-path="url(#clip2_44_994)">
<g clip-path="url(#clip3_44_994)">
<g clip-path="url(#clip4_44_994)">
<path d="M33.7673 17.8809H32.2845C31.9169 17.8809 31.6189 18.1777 31.6189 18.5439V48.4558C31.6189 48.822 31.9169 49.1188 32.2845 49.1188H33.7673C34.1349 49.1188 34.433 48.822 34.433 48.4558V18.5439C34.433 18.1777 34.1349 17.8809 33.7673 17.8809Z" fill="black"/>
<g clip-path="url(#clip5_44_994)">
<g clip-path="url(#clip6_44_994)">
<g clip-path="url(#clip7_44_994)">
<g clip-path="url(#clip8_44_994)">
<path d="M7.73787 46.0889H2.33081V18.2184H7.73787V46.0889ZM22.363 49.0414L17.9005 46.1213C17.0754 46.2727 16.6085 46.3484 16.4999 46.3484C14.2416 46.3484 12.5261 45.7039 11.3534 44.4147C10.1808 43.1299 9.59452 41.2437 9.59452 38.7563V25.2915C9.59452 22.8905 10.1852 21.0671 11.3665 19.8212C12.5521 18.5796 14.2633 17.9589 16.4999 17.9589C18.7366 17.9589 20.4456 18.5796 21.6269 19.8212C22.8125 21.0671 23.4053 22.8905 23.4053 25.2915V38.7563C23.4053 41.0491 22.8842 42.866 21.8418 44.2071L24.2522 45.732L22.363 49.0414ZM16.4999 41.2221C17.0428 41.2221 17.3902 40.9625 17.5422 40.4434C17.6943 39.9243 17.7703 39.2538 17.7703 38.4318V25.3888C17.7703 24.675 17.6769 24.1126 17.4901 23.7017C17.3077 23.2907 16.9668 23.0852 16.4674 23.0852C15.577 23.0852 15.1319 23.8423 15.1319 25.3564V38.5291C15.1319 39.3078 15.2187 39.9502 15.3925 40.4564C15.5662 40.9669 15.9353 41.2221 16.4999 41.2221Z" fill="black"/>
</g>
</g>
</g>
</g>
<g clip-path="url(#clip9_44_994)">
<g clip-path="url(#clip10_44_994)">
<path d="M50.3189 46.1106C50.1178 46.1317 49.9156 46.1448 49.7177 46.1501C49.6054 46.1515 49.4983 46.1974 49.42 46.2775C49.3417 46.3577 49.2985 46.4655 49.3 46.5774C49.3015 46.6892 49.3475 46.7959 49.4279 46.8739C49.5084 46.952 49.6167 46.995 49.7289 46.9935H49.7406C49.9601 46.9876 50.1841 46.9724 50.4065 46.9498C50.5182 46.9383 50.6207 46.883 50.6915 46.7961C50.7623 46.7093 50.7955 46.598 50.7839 46.4867C50.7722 46.3754 50.7167 46.2733 50.6295 46.2029C50.5423 46.1324 50.4306 46.0991 50.3189 46.1106Z" fill="#FE6152"/>
<path d="M48.3227 46.0575C48.1256 46.025 47.9287 45.9835 47.7376 45.9344C47.6288 45.9064 47.5134 45.9226 47.4166 45.9795C47.3199 46.0363 47.2498 46.1291 47.2217 46.2374C47.1936 46.3457 47.2099 46.4607 47.2669 46.5571C47.324 46.6534 47.4171 46.7233 47.5259 46.7512C47.741 46.8063 47.9622 46.8529 48.1834 46.8895C48.2065 46.8933 48.2298 46.8952 48.2532 46.8952C48.3597 46.8954 48.4623 46.8557 48.5406 46.7839C48.6189 46.7121 48.6673 46.6136 48.6759 46.5079C48.6846 46.4022 48.653 46.2972 48.5874 46.2137C48.5218 46.1302 48.4271 46.0743 48.322 46.0573L48.3227 46.0575Z" fill="#FE6152"/>
<path d="M52.2848 45.6698C52.093 45.736 51.8978 45.7963 51.7047 45.8488C51.5964 45.8784 51.5044 45.9496 51.4488 46.0468C51.3932 46.144 51.3787 46.2592 51.4084 46.367C51.4381 46.4749 51.5096 46.5666 51.6072 46.622C51.7047 46.6773 51.8204 46.6918 51.9287 46.6622C52.1404 46.6049 52.3521 46.5389 52.5616 46.467C52.6678 46.4304 52.755 46.3533 52.8041 46.2527C52.8531 46.1521 52.8601 46.0362 52.8234 45.9305C52.7867 45.8248 52.7093 45.7379 52.6083 45.689C52.5073 45.6401 52.3909 45.6332 52.2848 45.6698Z" fill="#FE6152"/>
<path d="M46.4391 45.4481C46.2628 45.3592 46.089 45.2609 45.9224 45.1559C45.8275 45.0961 45.7126 45.0763 45.6031 45.1009C45.4935 45.1255 45.3983 45.1924 45.3383 45.2869C45.2782 45.3815 45.2584 45.4959 45.2831 45.605C45.3077 45.7141 45.3749 45.809 45.4698 45.8688C45.6591 45.9879 45.8563 46.0997 46.0566 46.2005C46.1568 46.251 46.273 46.2598 46.3797 46.225C46.4864 46.1901 46.5749 46.1145 46.6256 46.0147C46.6763 45.9149 46.6852 45.7991 46.6502 45.6928C46.6152 45.5866 46.5393 45.4987 46.4391 45.4481Z" fill="#FE6152"/>
<path d="M54.1266 44.8196C53.9507 44.9223 53.7706 45.021 53.5911 45.1127C53.5416 45.138 53.4976 45.1727 53.4616 45.2149C53.4256 45.2571 53.3983 45.306 53.3813 45.3587C53.3643 45.4114 53.3578 45.467 53.3624 45.5222C53.3669 45.5774 53.3823 45.6311 53.4076 45.6804C53.433 45.7297 53.4679 45.7735 53.5103 45.8093C53.5527 45.8452 53.6017 45.8724 53.6546 45.8893C53.7076 45.9063 53.7633 45.9127 53.8187 45.9082C53.8742 45.9037 53.9281 45.8884 53.9776 45.8631C54.1713 45.7642 54.3656 45.6579 54.5551 45.5468C54.6519 45.4903 54.7223 45.3977 54.7506 45.2895C54.779 45.1812 54.763 45.0662 54.7062 44.9697C54.6494 44.8732 54.5565 44.8032 54.4478 44.7749C54.3392 44.7467 54.2237 44.7626 54.1268 44.8192L54.1266 44.8196Z" fill="#FE6152"/>
<path d="M44.4377 43.8558C44.4025 43.8117 44.3589 43.7751 44.3093 43.7481C44.2597 43.7212 44.2052 43.7044 44.149 43.6987C44.0928 43.693 44.036 43.6986 43.982 43.7151C43.928 43.7317 43.8779 43.7588 43.8346 43.7949C43.7913 43.831 43.7556 43.8754 43.7298 43.9255C43.704 43.9755 43.6885 44.0302 43.6842 44.0863C43.6799 44.1424 43.687 44.1988 43.7049 44.2522C43.7229 44.3056 43.7513 44.3548 43.7887 44.397C43.9326 44.5684 44.085 44.7344 44.2432 44.8913C44.3231 44.968 44.4301 45.0103 44.5411 45.0092C44.6521 45.0081 44.7583 44.9636 44.8367 44.8853C44.915 44.807 44.9594 44.7012 44.9602 44.5906C44.961 44.48 44.9182 44.3735 44.841 44.2941C44.7008 44.155 44.5653 44.0078 44.4377 43.8558Z" fill="#FE6152"/>
<path d="M55.7889 43.6409C55.6327 43.7731 55.4714 43.9022 55.3114 44.0249C55.2222 44.0929 55.1639 44.1934 55.1492 44.3043C55.1344 44.4152 55.1645 44.5273 55.2328 44.6161C55.3011 44.7049 55.402 44.763 55.5133 44.7777C55.6247 44.7923 55.7373 44.7624 55.8264 44.6943C55.9983 44.5632 56.1702 44.4251 56.337 44.2838C56.4217 44.2112 56.4742 44.1081 56.4829 43.9971C56.4916 43.886 56.4559 43.7761 56.3836 43.6912C56.3112 43.6063 56.208 43.5533 56.0966 43.5439C55.9852 43.5345 55.8746 43.5694 55.7889 43.6409Z" fill="#FE6152"/>
<path d="M43.6532 42.7054C43.5583 42.5322 43.4684 42.3515 43.3864 42.1687C43.3638 42.1182 43.3313 42.0725 43.2909 42.0345C43.2505 41.9964 43.203 41.9666 43.1511 41.9469C43.0992 41.9271 43.0438 41.9177 42.9882 41.9192C42.9327 41.9208 42.8779 41.9332 42.8272 41.9558C42.7764 41.9784 42.7306 42.0107 42.6924 42.0509C42.6542 42.0911 42.6243 42.1385 42.6044 42.1902C42.5846 42.2419 42.5752 42.297 42.5767 42.3524C42.5782 42.4078 42.5907 42.4623 42.6134 42.5128C42.7046 42.7161 42.8039 42.9168 42.9097 43.1096C42.9364 43.1582 42.9724 43.2011 43.0157 43.2358C43.059 43.2706 43.1087 43.2965 43.162 43.3121C43.2154 43.3277 43.2713 43.3327 43.3266 43.3268C43.3819 43.3209 43.4354 43.3041 43.4842 43.2776C43.533 43.2511 43.5761 43.2152 43.611 43.1721C43.6459 43.129 43.6719 43.0794 43.6876 43.0263C43.7032 42.9731 43.7083 42.9175 43.7023 42.8624C43.6964 42.8073 43.6796 42.754 43.653 42.7054H43.6532Z" fill="#FE6152"/>
<path d="M42.928 40.8439C42.8791 40.651 42.8359 40.4526 42.7999 40.2535C42.7799 40.1435 42.7168 40.0458 42.6245 39.9821C42.5323 39.9184 42.4184 39.8938 42.3079 39.9137C42.1974 39.9337 42.0994 39.9965 42.0354 40.0884C41.9714 40.1803 41.9467 40.2938 41.9667 40.4039C42.0063 40.6213 42.0535 40.8386 42.1071 41.0499C42.1204 41.1039 42.1443 41.1548 42.1774 41.1996C42.2106 41.2443 42.2523 41.2821 42.3001 41.3108C42.348 41.3394 42.4011 41.3584 42.4563 41.3665C42.5115 41.3746 42.5678 41.3718 42.622 41.3582C42.6761 41.3446 42.727 41.3204 42.7717 41.2871C42.8164 41.2538 42.8541 41.212 42.8825 41.1642C42.911 41.1163 42.9296 41.0633 42.9374 41.0083C42.9452 40.9532 42.942 40.8971 42.928 40.8433V40.8439Z" fill="#FE6152"/>
<path d="M42.2434 39.2842C42.299 39.2824 42.3536 39.2697 42.4043 39.2468C42.4549 39.2239 42.5005 39.1913 42.5385 39.1508C42.5764 39.1104 42.606 39.0629 42.6256 39.011C42.6451 38.9592 42.6542 38.904 42.6524 38.8486C42.6456 38.6461 42.6447 38.4434 42.6498 38.2405C42.6526 38.1287 42.6107 38.0203 42.5333 37.9392C42.495 37.8991 42.4491 37.8669 42.3983 37.8444C42.3474 37.8219 42.2926 37.8097 42.237 37.8083C42.1248 37.8055 42.016 37.8472 41.9346 37.9243C41.8532 38.0014 41.8059 38.1076 41.8031 38.2194C41.7976 38.4384 41.7985 38.6576 41.8059 38.8769C41.8095 38.9863 41.8558 39.0899 41.9348 39.166C42.0138 39.242 42.1193 39.2845 42.2292 39.2845L42.2434 39.2842Z" fill="#FE6152"/>
<path d="M42.2929 37.1778C42.3139 37.181 42.3352 37.1826 42.3564 37.1827C42.4576 37.1826 42.5554 37.1463 42.6321 37.0806C42.7088 37.0148 42.7593 36.9239 42.7745 36.8242C42.8048 36.6252 42.841 36.4225 42.882 36.2224C42.8931 36.1682 42.8934 36.1122 42.8828 36.0579C42.8723 36.0035 42.851 35.9517 42.8204 35.9055C42.7897 35.8593 42.7502 35.8196 42.7041 35.7886C42.658 35.7576 42.6063 35.7359 42.5518 35.7248C42.4973 35.7138 42.4412 35.7135 42.3866 35.724C42.332 35.7345 42.28 35.7557 42.2336 35.7862C42.1872 35.8168 42.1473 35.8561 42.1162 35.902C42.0851 35.9479 42.0633 35.9995 42.0522 36.0538C42.009 36.2678 41.9705 36.4843 41.9379 36.6975C41.9296 36.7523 41.9321 36.8081 41.9454 36.8619C41.9587 36.9157 41.9826 36.9663 42.0155 37.0109C42.0485 37.0555 42.09 37.0932 42.1376 37.1218C42.1851 37.1505 42.2379 37.1695 42.2929 37.1778Z" fill="#FE6152"/>
<path d="M42.7157 35.1131C42.8225 35.1478 42.9387 35.1388 43.0387 35.0881C43.1388 35.0374 43.2146 34.9492 43.2494 34.8428C43.3129 34.6503 43.3812 34.4559 43.4538 34.2653C43.4736 34.2135 43.4829 34.1584 43.4812 34.103C43.4795 34.0477 43.4669 33.9932 43.4441 33.9427C43.4213 33.8922 43.3887 33.8466 43.3482 33.8087C43.3078 33.7707 43.2602 33.741 43.2082 33.7214C43.1562 33.7017 43.1008 33.6925 43.0453 33.6942C42.9897 33.6958 42.935 33.7084 42.8843 33.7311C42.8336 33.7538 42.7879 33.7863 42.7498 33.8266C42.7116 33.8669 42.6819 33.9143 42.6622 33.9661C42.5849 34.1694 42.5116 34.3764 42.4445 34.5816C42.4098 34.6879 42.4188 34.8036 42.4696 34.9033C42.5205 35.003 42.609 35.0784 42.7157 35.1131Z" fill="#FE6152"/>
<path d="M43.4648 33.1425C43.5144 33.1676 43.5685 33.1827 43.6239 33.1869C43.6794 33.1912 43.7351 33.1846 43.788 33.1674C43.8408 33.1502 43.8898 33.1228 43.932 33.0867C43.9742 33.0507 44.0089 33.0067 44.0341 32.9574C44.1266 32.7762 44.2246 32.5945 44.3253 32.4169C44.354 32.3687 44.3726 32.3152 44.3803 32.2597C44.3879 32.2042 44.3844 32.1477 44.3698 32.0935C44.3553 32.0394 44.3301 31.9887 44.2956 31.9443C44.2612 31.9 44.2182 31.863 44.1693 31.8354C44.1203 31.8078 44.0663 31.7902 44.0104 31.7836C43.9545 31.7771 43.8979 31.7817 43.8438 31.7972C43.7897 31.8127 43.7393 31.8387 43.6955 31.8739C43.6516 31.909 43.6152 31.9525 43.5885 32.0018C43.4814 32.1903 43.3768 32.3834 43.279 32.5759C43.2283 32.6756 43.2194 32.7913 43.2542 32.8975C43.2891 33.0038 43.3648 33.0919 43.4648 33.1425Z" fill="#FE6152"/>
<path d="M45.3974 30.1296C45.3538 30.0953 45.3038 30.0699 45.2502 30.0549C45.1967 30.0399 45.1408 30.0355 45.0855 30.042C45.0303 30.0485 44.9769 30.0658 44.9284 30.0929C44.8799 30.12 44.8372 30.1563 44.8028 30.1998C44.6678 30.3704 44.5357 30.5456 44.4097 30.7206C44.3766 30.7656 44.3527 30.8166 44.3395 30.8708C44.3264 30.9251 44.3241 30.9814 44.3329 31.0364C44.3417 31.0915 44.3614 31.1443 44.3908 31.1918C44.4203 31.2393 44.4589 31.2804 44.5044 31.3129C44.5499 31.3454 44.6014 31.3686 44.656 31.3811C44.7106 31.3936 44.7671 31.3952 44.8223 31.3858C44.8775 31.3764 44.9303 31.3562 44.9776 31.3264C45.0249 31.2965 45.0658 31.2576 45.0979 31.2119C45.2165 31.0472 45.3407 30.8823 45.4679 30.7219C45.5024 30.6784 45.5278 30.6285 45.5429 30.5752C45.558 30.5219 45.5624 30.4662 45.5559 30.4112C45.5493 30.3562 45.532 30.303 45.5048 30.2547C45.4776 30.2064 45.4411 30.1638 45.3974 30.1296Z" fill="#FE6152"/>
<path d="M61.4346 30.8384C61.3855 30.8668 61.3426 30.9048 61.3086 30.9501C61.2745 30.9954 61.25 31.0471 61.2365 31.1022L62.0535 31.0827C62.0422 31.0523 62.0285 31.0229 62.0125 30.9947C61.9566 30.8974 61.8643 30.8263 61.7559 30.797C61.6476 30.7677 61.532 30.7826 61.4346 30.8384Z" fill="#FE6152"/>
<path d="M59.4513 36.8217L59.7456 36.4453L58.8446 36.1712C58.1573 36.4784 57.4298 36.6874 56.6838 36.7919C56.6786 36.72 56.6547 36.6506 56.6146 36.5906C56.4046 36.2522 56.1265 35.9609 55.7978 35.735C55.469 35.5091 55.0969 35.3536 54.7048 35.2782C53.4184 35.0488 52.1989 35.7632 51.8682 35.9774C51.2137 35.6394 50.6088 35.2137 50.0702 34.7123C50.1149 34.6796 50.1566 34.6429 50.1949 34.6029C50.5621 34.2168 50.5215 33.631 50.4648 33.3166C50.4496 33.145 50.4666 32.972 50.5149 32.8066L50.5213 32.7771C50.5496 32.6612 50.5856 32.5474 50.6292 32.4363C50.7511 32.1582 50.8103 31.8569 50.8026 31.5535C50.7546 30.9095 50.2946 30.5171 49.9254 30.2019C49.6248 29.9453 49.3651 29.7237 49.3312 29.4277C49.2928 29.0725 49.289 28.7145 49.3198 28.3586C49.321 28.3429 49.3214 28.3271 49.3208 28.3114C49.2997 27.6156 48.707 27.157 47.7224 27.0543C47.78 26.8066 47.8489 26.5635 47.929 26.3249C48.0008 26.3403 48.0736 26.3504 48.1468 26.3551C48.6561 26.3551 49.1049 25.9005 49.4406 25.5013C49.6779 25.255 49.9686 25.0658 50.2903 24.9483C50.349 24.9213 50.408 24.8941 50.4671 24.866C50.6853 24.7796 50.8834 24.6496 51.0493 24.4841C51.2152 24.3186 51.3454 24.1211 51.4319 23.9037C51.5566 23.5429 51.4455 22.7771 51.4377 22.7164C51.4165 22.4942 51.3734 22.2747 51.309 22.061C52.2577 21.4699 53.3206 21.084 54.4287 20.9283C54.4311 21.0675 54.4819 21.3838 54.3576 21.4858C54.2621 21.5503 54.1576 21.6004 54.0475 21.6347C53.9702 21.664 53.8936 21.6933 53.8201 21.7268C53.4505 21.8752 53.1112 22.0896 52.8189 22.3594C52.4887 22.6968 52.5189 22.9888 52.6025 23.1752C52.6435 23.2663 52.7156 23.34 52.806 23.3832C52.8964 23.4263 52.9993 23.4361 53.0962 23.4108C53.1932 23.3855 53.278 23.3267 53.3356 23.245C53.3931 23.1632 53.4197 23.0638 53.4105 22.9643L53.4241 22.9502C53.6456 22.7568 53.8988 22.6027 54.1726 22.4946C54.2293 22.4686 54.2886 22.4465 54.3481 22.4241C54.5458 22.36 54.7313 22.2629 54.8965 22.1372C55.2801 21.8209 55.2776 21.3627 55.2757 21.0584V21.0188C55.2757 20.9713 55.2757 20.9146 55.2733 20.855C55.3678 20.8516 55.4628 20.8476 55.5583 20.8476C56.1665 20.848 56.7728 20.9172 57.3654 21.054C57.2475 21.2179 57.1668 21.4053 57.1289 21.6033C57.091 21.8014 57.0968 22.0053 57.1459 22.2008C57.1488 22.2133 57.1524 22.2255 57.1565 22.2375C57.1928 22.3478 57.2092 22.4637 57.2049 22.5797C56.8311 22.5519 55.3263 22.5043 55.2016 23.5075C55.1986 23.5267 55.1963 23.5471 55.195 23.5682C55.2008 23.7294 55.1643 23.8893 55.0892 24.0321C55.0507 24.0568 55.0109 24.0792 54.9698 24.0992C54.7985 24.1708 54.6505 24.2883 54.5422 24.4386C54.4554 24.5786 54.1916 25.0039 54.4173 25.3902C54.673 25.8273 55.2706 25.8052 56.028 25.7771C56.6391 25.7544 57.4776 25.7234 57.771 26.0255C57.8277 26.0918 57.8688 26.1699 57.8913 26.2541C57.9137 26.3383 57.9168 26.4264 57.9005 26.512C57.8811 26.551 57.7596 26.6174 57.4721 26.6037L57.4259 26.6014C57.0489 26.5993 56.6727 26.5658 56.3013 26.5012C55.5943 26.2859 54.7137 26.0184 53.7884 26.2551C53.2796 26.3961 52.8245 26.6847 52.4809 27.0841C52.1373 27.4836 51.9208 27.9758 51.8589 28.4982C51.7567 29.5455 52.1129 30.2669 52.919 30.6422L53.0011 30.6805C53.3887 30.9036 53.8311 31.0143 54.2784 31.0002C54.295 30.9989 54.3115 30.9965 54.3278 30.9932C54.4476 30.9692 54.9416 30.9205 55.1616 31.1198C55.2011 31.1587 55.231 31.2064 55.2488 31.2589C55.3169 31.2474 55.3857 31.2408 55.4548 31.2391L56.1127 31.2235C56.0726 30.9439 55.9373 30.6864 55.7295 30.4942C55.2003 30.0174 54.3779 30.1283 54.1906 30.1612C53.8979 30.1524 53.6124 30.0686 53.3616 29.9179L53.277 29.8785C52.9446 29.7237 52.6163 29.4483 52.701 28.5807C52.7456 28.2305 52.8923 27.9011 53.1228 27.6331C53.3534 27.3651 53.6577 27.1703 53.9982 27.0726C54.6421 26.9079 55.2829 27.0741 56.053 27.3081C56.4909 27.3957 56.9363 27.4413 57.383 27.4441L57.4274 27.4465C57.6094 27.4686 57.7939 27.4542 57.9702 27.4042C58.1465 27.3541 58.311 27.2694 58.4539 27.1551C58.619 27.0102 58.7226 26.8082 58.7435 26.59C58.7702 26.3834 58.7514 26.1735 58.6885 25.9749C58.6255 25.7763 58.5199 25.5938 58.3789 25.44C57.8231 24.8669 56.8099 24.9046 55.9956 24.9339C55.7407 24.9486 55.4852 24.9486 55.2304 24.9339L55.2454 24.9078C55.2723 24.8903 55.3235 24.8637 55.3591 24.8445C55.4928 24.7849 55.6137 24.7 55.7149 24.5945C55.9244 24.3083 56.0385 23.9639 56.0413 23.6098C56.0542 23.506 56.6023 23.3759 57.1632 23.4217C57.173 23.4217 57.1827 23.4229 57.1925 23.4232C57.3252 23.4294 57.4576 23.4038 57.5784 23.3486C57.6992 23.2934 57.8049 23.2101 57.8868 23.1058C58.1709 22.7162 58.0174 22.1464 57.9662 21.9883C57.9451 21.8592 57.9626 21.7269 58.0166 21.6077C58.0706 21.4885 58.1586 21.3878 58.2697 21.3182C59.4293 21.7348 60.4778 22.4102 61.335 23.2926C62.1923 24.1749 62.8355 25.241 63.2155 26.4091C62.8595 26.4006 62.5055 26.4631 62.1742 26.5929C62.1268 26.6085 62.0707 26.6271 62.0214 26.6423C61.726 26.382 61.3501 26.2303 60.9562 26.2123C60.8041 26.2044 60.6523 26.2317 60.5127 26.2921C60.373 26.3525 60.2493 26.4444 60.1514 26.5605C60.0534 26.6765 59.9838 26.8137 59.948 26.9611C59.9122 27.1085 59.9112 27.2621 59.9452 27.41C59.9758 27.5222 60.0195 27.6304 60.0756 27.7324C60.0853 27.752 60.0967 27.7756 60.1088 27.8001C60.0287 27.8071 59.948 27.7951 59.8734 27.7651C59.7678 27.6434 59.6294 27.5544 59.4747 27.5086C59.3199 27.4628 59.1552 27.4621 59 27.5066C58.8679 27.5555 58.7533 27.6422 58.6704 27.7558C58.5876 27.8694 58.5402 28.0048 58.5343 28.145C58.5093 28.385 58.5339 28.6276 58.6068 28.8578C58.6796 29.0879 58.799 29.3008 58.9577 29.4831C59.1937 29.7243 59.4884 29.9005 59.8131 29.9946L59.7686 30.0697C59.7113 30.1667 59.6537 30.2647 59.5917 30.3558C59.5159 30.4672 59.4299 30.5768 59.3391 30.6932C59.224 30.8408 59.1075 30.9911 59.0023 31.1543L60.0709 31.129C60.1458 31.0327 60.2212 30.934 60.2923 30.8296C60.3635 30.7252 60.4316 30.6105 60.4983 30.4979C60.5294 30.445 60.5605 30.3925 60.5919 30.3415C60.6652 30.2481 60.7165 30.1395 60.742 30.0237C60.7674 29.9078 60.7663 29.7878 60.7388 29.6725C60.7074 29.5846 60.6565 29.5049 60.5897 29.4395C60.523 29.3741 60.4422 29.3246 60.3535 29.2948C60.2864 29.2685 60.2182 29.2438 60.1503 29.2195C59.9424 29.1668 59.7502 29.0652 59.5898 28.9233C59.4741 28.7904 59.4016 28.6257 59.3819 28.451C59.6481 28.6145 59.9642 28.6782 60.2733 28.6306C60.4131 28.6187 60.5478 28.5727 60.6655 28.4968C60.7833 28.4209 60.8806 28.3173 60.9488 28.1952C61.1007 27.8954 60.9469 27.5856 60.8342 27.3594C60.8114 27.3134 60.7769 27.2438 60.7707 27.2249C60.7659 27.2035 60.7661 27.1813 60.7714 27.16C60.7766 27.1388 60.7868 27.119 60.801 27.1024C60.8136 27.086 60.8302 27.0731 60.8492 27.0649C60.8682 27.0567 60.889 27.0536 60.9096 27.0558C61.0166 27.0565 61.1223 27.0786 61.2205 27.1209C61.3187 27.1631 61.4073 27.2247 61.4811 27.3018C61.7212 27.632 62.1208 27.4996 62.442 27.3933C62.7138 27.3031 63.0861 27.1797 63.2838 27.2831C63.4031 27.3682 63.4842 27.4964 63.5099 27.6402C63.6855 28.78 63.6118 29.9441 63.294 31.0529L63.6987 31.0432L64.095 30.5178C64.1797 30.4087 64.2643 30.3008 64.349 30.1941C64.6221 28.4062 64.3391 26.5779 63.5381 24.955C62.7371 23.3321 61.4565 21.9923 59.8684 21.1158C58.2803 20.2394 56.4609 19.8682 54.6548 20.0522C52.8486 20.2363 51.1424 20.9667 49.7653 22.1453C48.3883 23.3239 47.4065 24.8941 46.952 26.645C46.4974 28.3958 46.5919 30.2433 47.2227 31.9391C47.8535 33.6349 48.9905 35.0977 50.4806 36.1308C51.9708 37.1639 53.7427 37.7178 55.5583 37.718C56.9076 37.7193 58.2394 37.4127 59.4513 36.8217ZM50.5651 22.5854C50.5797 22.6759 50.5911 22.7655 50.5983 22.8222C50.6076 22.896 50.6161 22.962 50.6248 23.012C50.6753 23.2139 50.6777 23.4248 50.632 23.6279C50.5817 23.7391 50.5089 23.8388 50.4181 23.9206C50.3273 24.0025 50.2204 24.0647 50.1043 24.1034L49.9349 24.1818C49.4979 24.3478 49.1064 24.614 48.7918 24.9588C48.6458 25.1478 48.473 25.3147 48.2787 25.4541C48.8097 24.3358 49.5921 23.3542 50.5651 22.5854ZM49.8339 32.1494C49.7764 32.297 49.7295 32.4486 49.6936 32.6029L49.6875 32.6318C49.6129 32.9035 49.5942 33.1873 49.6324 33.4664C49.6868 33.6518 49.6685 33.8509 49.5812 34.0234C49.5426 34.0524 49.4945 34.0662 49.4464 34.062C48.7193 33.2199 48.1774 32.2355 47.8553 31.1722C47.5332 30.1088 47.4381 28.9901 47.5761 27.888C47.8725 27.9152 48.444 28.008 48.4745 28.3202C48.4419 28.7209 48.4474 29.1238 48.491 29.5234C48.5628 30.1488 49.0135 30.5336 49.3754 30.8427C49.7239 31.14 49.9383 31.3365 49.9591 31.6165C49.9534 31.8007 49.9109 31.9818 49.8339 32.1494ZM54.5598 36.1103C55.0447 36.2022 55.4769 36.4731 55.7699 36.8687C55.6995 36.8706 55.6294 36.8744 55.5583 36.8744C54.6342 36.8749 53.7171 36.716 52.8475 36.4048C53.376 36.139 53.9723 36.0364 54.5598 36.1103Z" fill="#FE6152"/>
<path d="M68.871 41.7854L66.5334 33.6253L67.1758 32.7733C67.5079 32.3229 67.827 31.862 68.0983 31.4409C68.2882 31.148 68.3597 30.7943 68.2984 30.4511C68.2371 30.1078 68.0475 29.8004 67.7679 29.5907L67.7455 29.5734C67.4569 29.3539 67.0955 29.2519 66.7343 29.2879C66.3731 29.3238 66.0391 29.4952 65.7999 29.7671C65.4688 30.1452 65.1145 30.5777 64.7722 31.0217L64.1293 31.8742L55.4759 32.0798C55.3601 32.0827 55.2475 32.118 55.1508 32.1817C55.0542 32.2454 54.9775 32.3349 54.9296 32.4399L54.554 33.2701C54.5195 33.3492 54.5021 33.4346 54.5028 33.5208C54.5036 33.6071 54.5226 33.6922 54.5585 33.7707C54.5944 33.8492 54.6465 33.9193 54.7114 33.9764C54.7763 34.0335 54.8525 34.0764 54.9351 34.1023L61.1708 35.9937L58.9664 38.8149L56.7727 38.6129C56.6871 38.6049 56.6008 38.6148 56.5193 38.6418C56.4377 38.6689 56.3628 38.7126 56.2992 38.7702L55.3527 39.6292C55.2767 39.7006 55.22 39.79 55.1882 39.8891C55.1563 39.9882 55.1502 40.0938 55.1705 40.1958C55.1908 40.2979 55.2368 40.3932 55.3042 40.4728C55.3715 40.5523 55.4581 40.6135 55.5557 40.6506L57.7056 41.4339C57.5754 41.724 57.405 42.1164 57.2788 42.453C57.2333 42.5737 57.2277 42.7058 57.2627 42.8299C57.2977 42.9541 57.3716 43.0639 57.4736 43.1433C57.5763 43.2242 57.7022 43.2703 57.8331 43.275C57.9639 43.2797 58.0929 43.2426 58.2011 43.1692L59.196 42.4996L60.5025 44.2227C60.5671 44.3044 60.6512 44.3687 60.7472 44.4096C60.8431 44.4505 60.9479 44.4668 61.0518 44.457C61.1557 44.4471 61.2555 44.4114 61.342 44.3532C61.4285 44.2949 61.4989 44.216 61.5468 44.1236L62.1048 42.9894C62.143 42.9116 62.1641 42.8265 62.1666 42.7399C62.1691 42.6533 62.153 42.5672 62.1194 42.4873L61.2815 40.4992L63.3905 37.5981L67.0738 42.8941C67.1235 42.9639 67.1872 43.0227 67.2608 43.0668C67.3344 43.1109 67.4164 43.1393 67.5016 43.1503C67.5869 43.1613 67.6734 43.1545 67.7559 43.1305C67.8384 43.1066 67.915 43.0658 67.9808 43.0109L68.6807 42.4152C68.7696 42.3394 68.8348 42.2397 68.8685 42.1281C68.9022 42.0165 68.9031 41.8975 68.871 41.7854ZM67.6242 42.2048L63.7464 36.6283C63.7071 36.574 63.6555 36.5295 63.5958 36.4987C63.5361 36.4678 63.47 36.4514 63.4027 36.4507C63.3355 36.45 63.269 36.465 63.2086 36.4947C63.1483 36.5243 63.0958 36.5676 63.0554 36.6212L60.456 40.1975C60.4134 40.2561 60.3866 40.3246 60.3783 40.3965C60.37 40.4684 60.3804 40.5413 60.4085 40.608L61.2966 42.7149L60.9517 43.4159L59.6293 41.6718C59.5631 41.5868 59.4671 41.5298 59.3605 41.5122C59.254 41.4946 59.1447 41.5176 59.0544 41.5767L58.362 42.0431C58.5208 41.6789 58.662 41.3793 58.6643 41.3742C58.6885 41.3211 58.7015 41.2637 58.7026 41.2054C58.7037 41.147 58.6927 41.0891 58.6704 41.0352C58.6482 40.9813 58.615 40.9324 58.5731 40.8918C58.5311 40.8511 58.4813 40.8194 58.4266 40.7986L56.2115 39.9912L56.7945 39.462L59.1186 39.6769C59.1893 39.6832 59.2604 39.6717 59.3256 39.6436C59.3907 39.6155 59.4478 39.5716 59.4915 39.516L62.2172 36.0303C62.2574 35.9758 62.2842 35.9125 62.2952 35.8456C62.3063 35.7788 62.3014 35.7103 62.2809 35.6457C62.2603 35.5811 62.2248 35.5223 62.1771 35.474C62.1294 35.4256 62.071 35.3892 62.0065 35.3676L55.4363 33.3749L55.6412 32.9217L64.3547 32.7147C64.4187 32.7131 64.4815 32.6971 64.5383 32.6679C64.5952 32.6387 64.6447 32.597 64.683 32.546C64.683 32.546 66.1183 30.6884 66.4379 30.3236C66.5353 30.2129 66.6712 30.1432 66.8183 30.1284C66.9653 30.1137 67.1124 30.1551 67.23 30.2443L67.2524 30.2616C67.3626 30.3433 67.4376 30.4636 67.4623 30.5981C67.4871 30.7327 67.4597 30.8716 67.3858 30.9869C67.1242 31.3932 65.73 33.288 65.73 33.288C65.6908 33.34 65.6642 33.4004 65.6523 33.4645C65.6404 33.5285 65.6435 33.5944 65.6614 33.657L68.0149 41.8716L67.6242 42.2048Z" fill="#FE6152"/>
</g>
</g>
</g>
</g>
<path d="M48.6993 -0.0272522C67.2884 -0.0272522 82.3581 14.9835 82.3581 33.4999C82.3581 52.0163 67.2884 67.027 48.6993 67.027C37.3182 67.027 27.2565 61.4006 21.1647 52.7877H22.9048C28.7894 60.5836 38.1531 65.6254 48.6993 65.6254C66.5115 65.6254 80.951 51.2424 80.951 33.4999C80.951 15.7574 66.5115 1.37432 48.6993 1.37432C38.1534 1.37432 28.7896 6.41614 22.9048 14.212H21.1647C27.2565 5.59912 37.3182 -0.0272522 48.6993 -0.0272522Z" fill="black"/>
</g>
</g>
</g>
<defs>
<clipPath id="clip0_44_994">
<rect width="84" height="67" fill="white"/>
</clipPath>
<clipPath id="clip1_44_994">
<rect width="107.708" height="67.0543" fill="white" transform="translate(-18.2415 -0.0272522)"/>
</clipPath>
<clipPath id="clip2_44_994">
<rect width="107.708" height="67.0543" fill="white" transform="translate(-18.2415 -0.0272522)"/>
</clipPath>
<clipPath id="clip3_44_994">
<rect width="66.5637" height="31.2379" fill="white" transform="translate(2.33081 17.8809)"/>
</clipPath>
<clipPath id="clip4_44_994">
<rect width="66.5637" height="31.2379" fill="white" transform="translate(2.33081 17.8809)"/>
</clipPath>
<clipPath id="clip5_44_994">
<rect width="21.9214" height="31.0825" fill="white" transform="translate(2.33081 17.9588)"/>
</clipPath>
<clipPath id="clip6_44_994">
<rect width="21.9214" height="31.0825" fill="white" transform="translate(2.33081 17.9588)"/>
</clipPath>
<clipPath id="clip7_44_994">
<rect width="21.9214" height="31.0825" fill="white" transform="translate(2.33081 17.9588)"/>
</clipPath>
<clipPath id="clip8_44_994">
<rect width="21.9214" height="31.0825" fill="white" transform="translate(2.33081 17.9588)"/>
</clipPath>
<clipPath id="clip9_44_994">
<rect width="27.0949" height="26.9874" fill="white" transform="translate(41.7996 20.0062)"/>
</clipPath>
<clipPath id="clip10_44_994">
<rect width="27.0949" height="26.9874" fill="white" transform="translate(41.7996 20.0062)"/>
</clipPath>
</defs>
</svg>
